<svg width="60" height="60" viewBox="0 0 60 60" fill="none" xmlns="http://www.w3.org/2000/svg">
<path d="M51.3388 32.0298H46.6986C47.1716 33.3247 47.43 34.7222 47.43 36.1787V53.7158C47.43 54.3231 47.3243 54.906 47.132 55.4481H54.8032C57.6688 55.4481 60 53.1168 60 50.2513V40.691C60.0001 35.9153 56.1146 32.0298 51.3388 32.0298Z" fill="white"/>
<path d="M12.5701 36.1788C12.5701 34.7221 12.8285 33.3248 13.3015 32.0298H8.66135C3.88548 32.0298 0 35.9153 0 40.6912V50.2515C0 53.117 2.33122 55.4483 5.19681 55.4483H12.8681C12.6758 54.906 12.5701 54.3232 12.5701 53.7159V36.1788Z" fill="white"/>
<path d="M35.3041 27.5175H24.696C19.9201 27.5175 16.0347 31.4029 16.0347 36.1788V53.7159C16.0347 54.6725 16.8102 55.4482 17.7669 55.4482H42.2331C43.1899 55.4482 43.9654 54.6727 43.9654 53.7159V36.1788C43.9654 31.4029 40.0799 27.5175 35.3041 27.5175Z" fill="white"/>
<path d="M30.0001 4.55157C24.2565 4.55157 19.5837 9.22432 19.5837 14.968C19.5837 18.8639 21.734 22.2665 24.9095 24.0529C26.4158 24.9002 28.1522 25.3844 30.0001 25.3844C31.8479 25.3844 33.5844 24.9002 35.0906 24.0529C38.2662 22.2665 40.4164 18.8638 40.4164 14.968C40.4164 9.22443 35.7437 4.55157 30.0001 4.55157Z" fill="white"/>
<path d="M11.7092 14.2604C7.41364 14.2604 3.91911 17.755 3.91911 22.0505C3.91911 26.346 7.41364 29.8405 11.7092 29.8405C12.7988 29.8405 13.8363 29.6148 14.7789 29.2091C16.4085 28.5075 17.7522 27.2656 18.5836 25.7099C19.1672 24.6181 19.4992 23.3725 19.4992 22.0505C19.4992 17.7551 16.0047 14.2604 11.7092 14.2604Z" fill="white"/>
<path d="M48.2909 14.2604C43.9954 14.2604 40.5009 17.755 40.5009 22.0505C40.5009 23.3726 40.8329 24.6182 41.4165 25.7099C42.2479 27.2657 43.5916 28.5077 45.2212 29.2091C46.1638 29.6148 47.2013 29.8405 48.2909 29.8405C52.5865 29.8405 56.081 26.346 56.081 22.0505C56.081 17.755 52.5865 14.2604 48.2909 14.2604Z" fill="white"/>
</svg>
