<svg width="60" height="60" viewBox="0 0 60 60" fill="none" xmlns="http://www.w3.org/2000/svg">
<path d="M57.2276 44.3477H54.1299V43.6837C54.1299 36.1408 47.9912 30.0001 40.4463 30.0001H31.956V15.6524H35.0538C36.5849 15.6524 37.8251 14.4124 37.8251 12.881V2.77344C37.8252 1.24231 36.585 0 35.0538 0H24.9462C23.4151 0 22.1728 1.24231 22.1728 2.77344V12.8808C22.1728 14.4122 23.415 15.6523 24.9462 15.6523H28.044V30.0001H19.5537C12.0086 30.0001 5.8682 36.1408 5.8682 43.6837V44.3477H2.77057C1.24114 44.3477 0.000915527 45.59 0.000915527 47.1211V57.2286C0.000915527 58.7598 1.24114 60 2.77057 60H12.8798C14.4112 60 15.6534 58.7598 15.6534 57.2286V47.1211C15.6534 45.59 14.4112 44.3477 12.8798 44.3477H9.78216V43.6837C9.78216 38.2969 14.1649 33.9142 19.5537 33.9142H28.044V44.3477H24.9462C23.4151 44.3477 22.1728 45.59 22.1728 47.1211V57.2286C22.1728 58.7598 23.415 60 24.9462 60H35.0538C36.5849 60 37.8251 58.7598 37.8251 57.2286V47.1211C37.8251 45.59 36.5849 44.3477 35.0538 44.3477H31.956V33.914H40.4463C45.8351 33.914 50.2159 38.2968 50.2159 43.6835V44.3475H47.1183C45.5871 44.3475 44.3466 45.5899 44.3466 47.121V57.2285C44.3466 58.7596 45.5871 59.9999 47.1183 59.9999H57.2276C58.7569 59.9999 59.9991 58.7596 59.9991 57.2285V47.121C59.999 45.5899 58.7568 44.3477 57.2276 44.3477Z" fill="white"/>
</svg>
