<svg width="22" height="22" viewBox="0 0 22 22" fill="none" xmlns="http://www.w3.org/2000/svg">
<g clip-path="url(#clip0_11_164)">
<path d="M21.9506 0.943228C22.0006 0.81829 22.0128 0.681422 21.9858 0.549592C21.9587 0.417762 21.8936 0.296767 21.7984 0.201608C21.7033 0.10645 21.5823 0.041311 21.4504 0.0142683C21.3186 -0.0127745 21.1817 -0.000532176 21.0568 0.0494775L1.05468 8.0506H1.0533L0.431804 8.2981C0.314091 8.34506 0.211647 8.42363 0.135788 8.52516C0.0599298 8.62668 0.0136091 8.74719 0.00194286 8.87339C-0.00972338 8.99958 0.0137189 9.12655 0.0696802 9.24025C0.125642 9.35396 0.211944 9.44999 0.319054 9.51773L0.882804 9.87523L0.884179 9.87798L7.7523 14.2477L9.93855 17.6825C11.0001 19.25 11.0001 17.875 11.0001 17.1875C10.9999 16.3138 11.1848 15.45 11.5425 14.6529C11.9002 13.8558 12.4227 13.1435 13.0755 12.5628C13.7284 11.9822 14.4968 11.5464 15.3302 11.2842C16.1636 11.0219 17.0431 10.9391 17.9108 11.0412L21.9506 0.943228ZM19.4302 3.54198L9.12593 13.8462L8.8303 13.3815C8.77614 13.2962 8.70384 13.2239 8.61855 13.1697L8.1538 12.8741L18.4581 2.56985L20.0778 1.92223L19.4316 3.54198H19.4302Z" fill="#2C85C9"/>
<path d="M22 17.1875C22 18.4639 21.493 19.6879 20.5905 20.5905C19.6879 21.493 18.4639 22 17.1875 22C15.9111 22 14.6871 21.493 13.7845 20.5905C12.882 19.6879 12.375 18.4639 12.375 17.1875C12.375 15.9111 12.882 14.6871 13.7845 13.7845C14.6871 12.882 15.9111 12.375 17.1875 12.375C18.4639 12.375 19.6879 12.882 20.5905 13.7845C21.493 14.6871 22 15.9111 22 17.1875ZM19.2596 14.8789C19.1822 14.8325 19.0963 14.8017 19.007 14.7885C18.9177 14.7753 18.8266 14.7798 18.739 14.8017C18.6514 14.8237 18.569 14.8627 18.4965 14.9165C18.424 14.9703 18.3628 15.0379 18.3164 15.1154L16.7076 17.7966L15.9555 17.0445C15.8264 16.9154 15.6513 16.8429 15.4688 16.8429C15.2862 16.8429 15.1111 16.9154 14.982 17.0445C14.8529 17.1736 14.7804 17.3487 14.7804 17.5312C14.7804 17.7138 14.8529 17.8889 14.982 18.018L16.0463 19.0809C16.157 19.1919 16.2916 19.2761 16.4399 19.3273C16.5881 19.3784 16.7461 19.3951 16.9017 19.376C17.0574 19.3569 17.2066 19.3025 17.3381 19.2171C17.4696 19.1316 17.5798 19.0173 17.6605 18.8829L19.4961 15.8221C19.5425 15.7447 19.5733 15.6588 19.5865 15.5695C19.5997 15.4802 19.5952 15.3891 19.5733 15.3015C19.5513 15.2139 19.5123 15.1315 19.4585 15.059C19.4047 14.9865 19.3371 14.9253 19.2596 14.8789Z" fill="#2C85C9"/>
</g>
<defs>
<clipPath id="clip0_11_164">
<rect width="22" height="22" fill="white"/>
</clipPath>
</defs>
</svg>
