<?xml version="1.0" encoding="utf-8"?>
<!-- Generator: Adobe Illustrator 22.1.0, SVG Export Plug-In . SVG Version: 6.00 Build 0)  -->
<svg version="1.1" id="Layer_1" xmlns="http://www.w3.org/2000/svg" xmlns:xlink="http://www.w3.org/1999/xlink" x="0px" y="0px"
	 viewBox="0 0 512 512" style="enable-background:new 0 0 512 512;" xml:space="preserve">
<style type="text/css">
	.st0{fill:#2C85C9;}
</style>
<g>
	<g>
		<g>
			<path class="st0" d="M256,159.4c36.5,0,66.1-29.7,66.1-66.1S292.5,27.1,256,27.1c-36.5,0-66.1,29.7-66.1,66.1
				S219.5,159.4,256,159.4z"/>
			<path class="st0" d="M149.3,318.7h213.3c8.8,0,16-7.1,16-16c0-67.6-55-122.6-122.6-122.6s-122.6,55-122.6,122.6
				C133.4,311.6,140.5,318.7,149.3,318.7z"/>
			<path class="st0" d="M320.4,380l-34.6-5l-15.5-31.4c-5.8-11.9-22.8-11.8-28.6,0L226.2,375l-34.6,5c-13.1,1.9-18.3,18-8.8,27.2
				l25.1,24.4l-5.9,34.5c-2.2,13,11.5,23,23.2,16.8l31-16.3l31,16.3c11.6,6.1,25.4-3.7,23.2-16.8l-5.9-34.5l25.1-24.4
				C338.7,398,333.5,381.9,320.4,380z"/>
			<path class="st0" d="M142.6,380l-34.6-5l-15.5-31.4c-5.8-11.8-22.8-11.8-28.6,0L48.3,375l-34.6,5c-13.1,1.9-18.3,18-8.8,27.2
				l25.1,24.4L24,466.2c-2.2,13,11.5,23,23.2,16.8l31-16.3l31,16.3c11.6,6.1,25.4-3.7,23.2-16.8l-5.9-34.5l25.1-24.4
				C160.9,398,155.6,381.9,142.6,380z"/>
			<path class="st0" d="M498.3,380l-34.6-5l-15.5-31.4c-4.8-9.7-15.4-8.9-14.3-8.9c-6.1,0-11.6,3.5-14.3,8.9L404.1,375l-34.6,5
				c-13.1,1.9-18.3,18-8.8,27.2l25.1,24.4l-5.9,34.5c-2.2,13,11.5,23,23.2,16.8l31-16.3l31,16.3c11.6,6.1,25.4-3.7,23.2-16.8
				l-5.9-34.5l25.1-24.4C516.6,398,511.4,381.9,498.3,380z"/>
		</g>
	</g>
</g>
</svg>
