<svg xmlns="http://www.w3.org/2000/svg" xmlns:xlink="http://www.w3.org/1999/xlink" version="1.1" style="enable-background:new 0 0 1200 800;" xml:space="preserve" width="923" height="179"><rect id="backgroundrect" width="100%" height="100%" x="0" y="0" fill="none" stroke="none"/>
<style type="text/css">
	.st0{fill:#666666;}
</style>

<g class="currentLayer" style=""><title>Layer 1</title><path class="st0" d="M58.50000610351563,175.89998779296877 h-34.8 v-86.7 h-23.7 v-28.2 h23.7 v-20.1 c0,-23.8 10.5,-40.9 45.2,-40.9 c7.3,0 18.9,1.5 18.9,1.5 v26.2 h-12.1 c-12.3,0 -17.1,3.7 -17.1,14.1 v19.2 h28.8 l-2.6,28.2 h-26.2 L58.50000610351563,175.89998779296877 zM138.3000061035156,58.69998779296873 c-0.5,0 -1,0 -1.5,0 c-32.3,0 -47,24.3 -47,58.7 c0,43.4 19.1,60.7 47.3,60.7 c16.1,0 26.7,-6.8 33.1,-19.4 v17.1 h33.1 V60.89998779296877 h-33.1 v17.7 C164.90000610351564,67.29998779296875 154.0000061035156,58.79998779296875 138.3000061035156,58.69998779296873 zM146.8000061035156,85.79998779296875 c13.5,0 21.7,9.4 21.7,25.5 l0,16.4 c0,10.8 -6.7,23.5 -21.7,23.5 c-23,0 -22.4,-24.9 -22.4,-33.2 C124.30000610351561,90.19998779296873 136.60000610351562,85.79998779296875 146.8000061035156,85.79998779296875 L146.8000061035156,85.79998779296875 zM216.60000610351562,118.39998779296877 c0,-14 -0.7000000000000001,-59.7 58.9,-59.7 c23.9,0 33.9,7.6 33.9,7.6 l-8,24.9 c0,0 -10,-5.5 -23,-5.5 c-16.6,0 -27.2,9.6 -27.2,26.6 l0,12.2 c0,16.3 10.2,27.2 27.3,27.2 c11.8,0 22.7,-5.5 22.7,-5.5 l8,24.4 c0,0 -9.1,7.6 -33.5,7.6 C218.90000610351564,178.19998779296873 216.60000610351562,137.19998779296873 216.60000610351562,118.39998779296877 L216.60000610351562,118.39998779296877 zM503.30000610351567,58.69998779296873 c32.3,0 47.2,24.3 47.2,58.7 c0,43.4 -19.1,60.7 -47.3,60.7 c-16.1,0 -28,-6.8 -34.4,-19.4 v17.1 l-32.7,0 V3.4999877929687386 l34.7,-3 v76.6 C475.9000061035156,63.69998779296873 492.4000061035156,58.69998779296873 503.30000610351567,58.69998779296873 L503.30000610351567,58.69998779296873 zM493.6000061035156,85.79998779296875 c-13.5,0 -22.7,9.4 -22.7,25.5 l0,16.4 c0,10.8 6.3,23.5 22.7,23.5 c23,0 22.4,-24.9 22.4,-33.2 C516.0000061035156,90.19998779296873 503.70000610351565,85.79998779296875 493.6000061035156,85.79998779296875 zM369.5000061035156,58.79998779296875 c-36.6,0 -55.9,19.9 -55.9,55.4 v6.6 c0,46 27.1,57.8 59.5,57.8 c31.4,0 45.7,-8.8 45.7,-8.8 l-6.5,-23.4 c0,0 -16.7,7.1 -35,7.1 c-18.9,0 -27.1,-4.8 -29.2,-23 h73.4 v-18.8 C421.5000061035156,73.29998779296875 399.80000610351567,58.79998779296875 369.5000061035156,58.79998779296875 L369.5000061035156,58.79998779296875 zM370.40000610351564,82.19998779296873 c12.7,0 20.9,7.8 20.4,25.8 h-42.7 C348.90000610351564,89.09998779296876 357.70000610351565,82.19998779296873 370.40000610351564,82.19998779296873 L370.40000610351564,82.19998779296873 zM619.7000061035156,58.59998779296876 c-37.6,0 -57.3,21.2 -57.3,59.1 c0,52.1 34.1,60.4 57.4,60.4 c34.1,0 56.8,-18.4 56.8,-60 C676.6000061035156,74.89998779296877 651.1000061035156,58.59998779296876 619.7000061035156,58.59998779296876 zM619.2000061035156,85.89998779296877 c16.5,0 23.1,12.4 23.1,26.4 v12.1 c0,17 -9.2,26.9 -23.1,26.9 c-13.1,0 -22.2,-9.2 -22.2,-26.9 v-12.1 C596.9000061035156,93.49998779296874 607.9000061035156,85.89998779296877 619.2000061035156,85.89998779296877 zM745.7000061035156,58.59998779296876 c-37.6,0 -57.3,21.2 -57.3,59.1 c0,52.1 34.1,60.4 57.4,60.4 c34.1,0 56.8,-18.4 56.8,-60 C802.6000061035156,74.89998779296877 777.1000061035156,58.59998779296876 745.7000061035156,58.59998779296876 zM745.2000061035156,85.89998779296877 c16.5,0 23.1,12.4 23.1,26.4 v12.1 c0,17 -9.2,26.9 -23.1,26.9 c-13.1,0 -22.2,-9.2 -22.2,-26.9 v-12.1 C722.9000061035156,93.49998779296874 733.9000061035156,85.89998779296877 745.2000061035156,85.89998779296877 zM815.7000061035156,175.89998779296877 V3.4999877929687386 l34.8,-3 v115.6 l34.5,-55.1 h36.7 l-36,57 l37.4,57.9 h-36.8 l-35.8,-56.2 v56.2 L815.7000061035156,175.89998779296877 z" id="svg_1"/></g></svg>