<svg width="23" height="18" viewBox="0 0 23 18" fill="none" xmlns="http://www.w3.org/2000/svg">
<path d="M6.8125 12.125C7.33203 12.125 7.75 12.543 7.75 13.0625C7.75 13.582 7.33203 14 6.8125 14H4.9375C4.41797 14 4 13.582 4 13.0625C4 12.543 4.41797 12.125 4.9375 12.125H6.8125ZM14.3125 12.125C14.832 12.125 15.25 12.543 15.25 13.0625C15.25 13.582 14.832 14 14.3125 14H9.9375C9.41797 14 9 13.582 9 13.0625C9 12.543 9.41797 12.125 9.9375 12.125H14.3125ZM20.25 0.25C21.6289 0.25 22.75 1.36914 22.75 2.75V15.25C22.75 16.6289 21.6289 17.75 20.25 17.75H2.75C1.36914 17.75 0.25 16.6289 0.25 15.25V2.75C0.25 1.36914 1.36914 0.25 2.75 0.25H20.25ZM20.25 2.125H2.75C2.40469 2.125 2.125 2.40469 2.125 2.75V4H20.875V2.75C20.875 2.40469 20.5938 2.125 20.25 2.125ZM20.875 7.75H2.125V15.25C2.125 15.5938 2.40469 15.875 2.75 15.875H20.25C20.5938 15.875 20.875 15.5938 20.875 15.25V7.75Z" fill="#2C85C9"/>
</svg>
