<svg xmlns="http://www.w3.org/2000/svg" xmlns:xlink="http://www.w3.org/1999/xlink" version="1.1" style="enable-background:new 0 0 500 500;" xml:space="preserve" width="400" height="426"><rect id="backgroundrect" width="100%" height="100%" x="0" y="0" fill="none" stroke="none"/>
<style type="text/css">
	.st0{filter:url(#Adobe_OpacityMaskFilter);}
	.st1{fill:#FFFFFF;}
	.st2{mask:url(#mask-2_00000147899005226304447980000015445179975821069982_);fill:#707070;}
	.st3{filter:url(#Adobe_OpacityMaskFilter_00000132054544828441868710000018436564037375635108_);}
	.st4{mask:url(#mask-2_00000041296104952216831910000007648957558544062860_);fill:url(#SVGID_1_);}
	.st5{filter:url(#Adobe_OpacityMaskFilter_00000096738481841969940440000015072048896818207658_);}
	.st6{opacity:0.2;mask:url(#mask-2_00000052813249094516018030000013566029506741639810_);fill:#4B4B4B;enable-background:new    ;}
	.st7{filter:url(#Adobe_OpacityMaskFilter_00000129891023117458587130000007584699504397877925_);}
	.st8{opacity:0.2;mask:url(#mask-2_00000110436681846516583130000014781976151684526213_);fill:#FFFFFF;enable-background:new    ;}
	.st9{filter:url(#Adobe_OpacityMaskFilter_00000119098736001728913440000011713574981281114557_);}
	
		.st10{opacity:0.2;mask:url(#mask-2_00000170999880785005507910000010797431264501575831_);fill:#616161;enable-background:new    ;}
	.st11{filter:url(#Adobe_OpacityMaskFilter_00000054979850620826257700000001086787834322360704_);}
	
		.st12{opacity:0.2;mask:url(#mask-2_00000019660057041592962680000006758350515540594336_);fill:#FFFFFF;enable-background:new    ;}
	.st13{fill:#333333;}
	.st14{fill:#666666;}
	.st15{fill:#757575;}
</style>

<g class="currentLayer" style=""><title>Layer 1</title><g id="svg_1" class="">
	<g id="svg_2">
		<g id="svg_3">
			<defs transform="translate(-50.099998474121094,-37) ">
				<filter id="Adobe_OpacityMaskFilter" filterUnits="userSpaceOnUse" x="134.3000030517578" y="37" width="271.20001220703125" height="273.5">
					<feColorMatrix type="matrix" values="1 0 0 0 0  0 1 0 0 0  0 0 1 0 0  0 0 0 1 0"/>
				</filter>
			</defs>
			
				<mask maskUnits="userSpaceOnUse" x="134.3000030517578" y="37" width="271.20001220703125" height="273.5" id="mask-2_00000147899005226304447980000015445179975821069982_" transform="translate(-50.099998474121094,-37) ">
				<g class="st0" id="svg_4">
					<path id="path-1_00000013161198361368512200000006828656694292445844_" class="st1" d="M377.4,37H162.3       c-15.4,0-28.1,12.6-28.1,28.1v84.2H78.2c-15.4,0-28.1,12.6-28.1,28.1v187c0,15.4,12.6,28.1,28.1,28.1h187       c15.4,0,28.1-12.6,28.1-28.1v-53.8h84.2c15.4,0,28.1-12.6,28.1-28.1V65.1C405.5,49.6,392.8,37,377.4,37z"/>
				</g>
			</mask>
			<path class="st2" d="M84.20000152587892,28.099999999999994 v84.2 l159,161.3 h84.2 c15.4,0 28.1,-12.6 28.1,-28.1 V28.099999999999994 c0,-15.4 -12.6,-28.1 -28.1,-28.1 H112.20000152587892 C96.80000152587891,0 84.20000152587892,12.600000000000001 84.20000152587892,28.099999999999994 z" id="svg_5"/>
			<defs transform="translate(-50.099998474121094,-37) ">
				
					<filter id="Adobe_OpacityMaskFilter_00000091006858506915289500000006034624178749654409_" filterUnits="userSpaceOnUse" x="293.20001220703125" y="149.1999969482422" width="156.60000610351562" height="161.3000030517578">
					<feColorMatrix type="matrix" values="1 0 0 0 0  0 1 0 0 0  0 0 1 0 0  0 0 0 1 0"/>
				</filter>
			</defs>
			
				<mask maskUnits="userSpaceOnUse" x="293.20001220703125" y="149.1999969482422" width="156.60000610351562" height="161.3000030517578" id="mask-2_00000041296104952216831910000007648957558544062860_" transform="translate(-50.099998474121094,-37) ">
				<g style="filter:url(#Adobe_OpacityMaskFilter_00000091006858506915289500000006034624178749654409_);" id="svg_6">
					<path id="path-1_00000124862916346982635260000000760332639403232701_" class="st1" d="M377.4,37H162.3       c-15.4,0-28.1,12.6-28.1,28.1v84.2H78.2c-15.4,0-28.1,12.6-28.1,28.1v187c0,15.4,12.6,28.1,28.1,28.1h187       c15.4,0,28.1-12.6,28.1-28.1v-53.8h84.2c15.4,0,28.1-12.6,28.1-28.1V65.1C405.5,49.6,392.8,37,377.4,37z"/>
				</g>
			</mask>
			
				<linearGradient id="SVGID_1_" gradientUnits="userSpaceOnUse" x1="1.8671000003814697" y1="499.87689208984375" x2="2.871999979019165" y2="498.98858642578125" gradientTransform="matrix(112.8421 0 0 -116.2105 63.3158 58303.3164)" transform="translate(-50.099998474121094,-37) ">
				<stop offset="0" style="stop-color:#434343;stop-opacity:0.2"/>
				<stop offset="1" style="stop-color:#434343;stop-opacity:2.000000e-02"/>
			</linearGradient>
			<polygon class="st4" points="243.10001373291016,112.19999694824219 243.10001373291016,273.5 399.7999954223633,273.5 " id="svg_7"/>
			<defs transform="translate(-50.099998474121094,-37) ">
				
					<filter id="Adobe_OpacityMaskFilter_00000172440443674280500080000015231608904388862336_" filterUnits="userSpaceOnUse" x="134.3000030517578" y="280.1000061035156" width="271.20001220703125" height="30.399999618530273">
					<feColorMatrix type="matrix" values="1 0 0 0 0  0 1 0 0 0  0 0 1 0 0  0 0 0 1 0"/>
				</filter>
			</defs>
			
				<mask maskUnits="userSpaceOnUse" x="134.3000030517578" y="280.1000061035156" width="271.20001220703125" height="30.399999618530273" id="mask-2_00000052813249094516018030000013566029506741639810_" transform="translate(-50.099998474121094,-37) ">
				<g style="filter:url(#Adobe_OpacityMaskFilter_00000172440443674280500080000015231608904388862336_);" id="svg_8">
					<path id="path-1_00000071553320234309278270000007208683938459515804_" class="st1" d="M377.4,37H162.3       c-15.4,0-28.1,12.6-28.1,28.1v84.2H78.2c-15.4,0-28.1,12.6-28.1,28.1v187c0,15.4,12.6,28.1,28.1,28.1h187       c15.4,0,28.1-12.6,28.1-28.1v-53.8h84.2c15.4,0,28.1-12.6,28.1-28.1V65.1C405.5,49.6,392.8,37,377.4,37z"/>
				</g>
			</mask>
			<path class="st6" d="M112.20000152587892,273.5 h215.1 c15.4,0 28.1,-12.6 28.1,-28.1 v-2.3 c0,15.4 -12.6,28.1 -28.1,28.1 H112.20000152587892 c-15.4,0 -28.1,-12.6 -28.1,-28.1 v2.3 C84.20000152587892,260.9 96.80000152587891,273.5 112.20000152587892,273.5 z" id="svg_9"/>
			<defs transform="translate(-50.099998474121094,-37) ">
				
					<filter id="Adobe_OpacityMaskFilter_00000010295969626096685190000000003177008504475786_" filterUnits="userSpaceOnUse" x="134.3000030517578" y="37" width="271.20001220703125" height="30.399999618530273">
					<feColorMatrix type="matrix" values="1 0 0 0 0  0 1 0 0 0  0 0 1 0 0  0 0 0 1 0"/>
				</filter>
			</defs>
			
				<mask maskUnits="userSpaceOnUse" x="134.3000030517578" y="37" width="271.20001220703125" height="30.399999618530273" id="mask-2_00000110436681846516583130000014781976151684526213_" transform="translate(-50.099998474121094,-37) ">
				<g style="filter:url(#Adobe_OpacityMaskFilter_00000010295969626096685190000000003177008504475786_);" id="svg_10">
					<path id="path-1_00000049185993055674630980000005252995127104595083_" class="st1" d="M377.4,37H162.3       c-15.4,0-28.1,12.6-28.1,28.1v84.2H78.2c-15.4,0-28.1,12.6-28.1,28.1v187c0,15.4,12.6,28.1,28.1,28.1h187       c15.4,0,28.1-12.6,28.1-28.1v-53.8h84.2c15.4,0,28.1-12.6,28.1-28.1V65.1C405.5,49.6,392.8,37,377.4,37z"/>
				</g>
			</mask>
			<path class="st8" d="M327.3000015258789,0 H112.20000152587892 c-15.4,0 -28.1,12.6 -28.1,28.1 v2.3 c0,-15.4 12.6,-28.1 28.1,-28.1 h215.1 c15.4,0 28.1,12.6 28.1,28.1 v-2.3 C355.4000015258789,12.600000000000001 342.7000015258789,0 327.3000015258789,0 z" id="svg_11"/>
			<defs transform="translate(-50.099998474121094,-37) ">
				
					<filter id="Adobe_OpacityMaskFilter_00000048501702378813480600000002858855363872179604_" filterUnits="userSpaceOnUse" x="50.099998474121094" y="361.8999938964844" width="243.10000610351562" height="30.399999618530273">
					<feColorMatrix type="matrix" values="1 0 0 0 0  0 1 0 0 0  0 0 1 0 0  0 0 0 1 0"/>
				</filter>
			</defs>
			
				<mask maskUnits="userSpaceOnUse" x="50.099998474121094" y="361.8999938964844" width="243.10000610351562" height="30.399999618530273" id="mask-2_00000170999880785005507910000010797431264501575831_" transform="translate(-50.099998474121094,-37) ">
				<g style="filter:url(#Adobe_OpacityMaskFilter_00000048501702378813480600000002858855363872179604_);" id="svg_12">
					<path id="path-1_00000048458827014760591530000004316277166671411380_" class="st1" d="M377.4,37H162.3       c-15.4,0-28.1,12.6-28.1,28.1v84.2H78.2c-15.4,0-28.1,12.6-28.1,28.1v187c0,15.4,12.6,28.1,28.1,28.1h187       c15.4,0,28.1-12.6,28.1-28.1v-53.8h84.2c15.4,0,28.1-12.6,28.1-28.1V65.1C405.5,49.6,392.8,37,377.4,37z"/>
				</g>
			</mask>
			<path class="st10" d="M28.10000152587891,355.3 h187 c15.4,0 28.1,-12.6 28.1,-28.1 v-2.3 c0,15.4 -12.6,28.1 -28.1,28.1 h-187 c-15.4,0 -28.1,-12.6 -28.1,-28.1 v2.3 C0.0000015258789076710855,342.7 12.700001525878903,355.3 28.10000152587891,355.3 z" id="svg_13"/>
			<defs transform="translate(-50.099998474121094,-37) ">
				
					<filter id="Adobe_OpacityMaskFilter_00000057863528795535184540000005127671679114892952_" filterUnits="userSpaceOnUse" x="50.099998474121094" y="149.1999969482422" width="243.10000610351562" height="30.399999618530273">
					<feColorMatrix type="matrix" values="1 0 0 0 0  0 1 0 0 0  0 0 1 0 0  0 0 0 1 0"/>
				</filter>
			</defs>
			
				<mask maskUnits="userSpaceOnUse" x="50.099998474121094" y="149.1999969482422" width="243.10000610351562" height="30.399999618530273" id="mask-2_00000019660057041592962680000006758350515540594336_" transform="translate(-50.099998474121094,-37) ">
				<g style="filter:url(#Adobe_OpacityMaskFilter_00000057863528795535184540000005127671679114892952_);" id="svg_14">
					<path id="path-1_00000146459697912567516380000002403206301329605269_" class="st1" d="M377.4,37H162.3       c-15.4,0-28.1,12.6-28.1,28.1v84.2H78.2c-15.4,0-28.1,12.6-28.1,28.1v187c0,15.4,12.6,28.1,28.1,28.1h187       c15.4,0,28.1-12.6,28.1-28.1v-53.8h84.2c15.4,0,28.1-12.6,28.1-28.1V65.1C405.5,49.6,392.8,37,377.4,37z"/>
				</g>
			</mask>
			<path class="st12" d="M243.1000015258789,114.6 H28.10000152587891 c-15.4,0 -28.1,12.6 -28.1,28.1 v-2.3 c0,-15.4 12.6,-28.1 28.1,-28.1 h215.1 V114.6 z" id="svg_15"/>
		</g>
		<path class="st13" d="M355.4000015258789,28.099999999999994 v217.4 c0,15.4 -12.6,28 -28,28 h-84.2 V112.19999999999999 h-159 V28.099999999999994 c0,-15.4 12.6,-28.1 28,-28.1 h215.1 C342.7000015258789,0 355.4000015258789,12.600000000000001 355.4000015258789,28.099999999999994 z" id="svg_16"/>
		<path class="st14" d="M243.1000015258789,112.19999999999999 v215.1 c0,15.4 -12.6,28 -28,28 h-187 c-15.4,0 -28,-12.6 -28,-28 v-187 c0,-15.4 12.6,-28 28,-28 H243.1000015258789 z" id="svg_17"/>
	</g>
	<g id="svg_18">
		<path class="st15" d="M26.10000152587891,370.2 c-12,0 -22.1,9.7 -22.1,21.6 c0,11.9 10,21.5 22.1,21.5 c6.5,0 11.3,-2.1 15.1,-6.1 c3.9,-3.9 5.1,-9.4 5.1,-13.7 c0,-1.4 -0.1,-2.7 -0.30000000000000004,-3.7 H26.10000152587891 v5.8 h14.2 c-0.4,3.3 -1.5,5.8 -3.2,7.4 c-2,2 -5.3,4.4 -11,4.4 c-8.7,0 -15.5,-7 -15.5,-15.6 c0,-8.6 6.8,-15.6 15.5,-15.6 c4.7,0 8.2,1.8 10.6,4.3 l4.2,-4.2 C37.400001525878906,372.9 32.7000015258789,370.2 26.10000152587891,370.2 zM62.2000015258789,385.7 c-7.6,0 -13.8,5.8 -13.8,14 c0,8.1 6.2,14 13.8,14 s13.8,-6 13.8,-14 S69.80000152587891,385.7 62.2000015258789,385.7 L62.2000015258789,385.7 zM62.2000015258789,408.2 c-4.2,0 -7.7,-3.5 -7.7,-8.5 s3.6,-8.5 7.7,-8.5 s7.7,3.4 7.7,8.5 C70.0000015258789,404.7 66.4000015258789,408.2 62.2000015258789,408.2 L62.2000015258789,408.2 zM92.20000152587892,385.7 c-7.7,0 -13.8,5.8 -13.8,14 c0,8.1 6.2,14 13.8,14 c7.6,0 13.8,-6 13.8,-14 S99.9000015258789,385.7 92.20000152587892,385.7 L92.20000152587892,385.7 zM92.20000152587892,408.2 c-4.2,0 -7.7,-3.5 -7.7,-8.5 s3.6,-8.5 7.7,-8.5 c4.1,0 7.7,3.4 7.7,8.5 C100.0000015258789,404.7 96.5000015258789,408.2 92.20000152587892,408.2 L92.20000152587892,408.2 zM122.1000015258789,385.7 c-6.9,0 -13.2,6.1 -13.2,13.9 c0,7.7 6.3,13.8 13.2,13.8 c3.3,0 5.8,-1.5 7.2,-3.2 h0.2 v2 c0,5.3 -2.7,8.2 -7.4,8.2 c-3.7,0 -6,-2.7 -6.9,-4.9 l-5.3,2.2 c1.5,3.7 5.5,8.2 12.2,8.2 c7.1,0 13.1,-4.3 13.1,-14.5 v-24.9 h-5.8 v2.2 h-0.2 C128.0000015258789,387.2 125.4000015258789,385.7 122.1000015258789,385.7 L122.1000015258789,385.7 zM122.6000015258789,408 c-4.2,0 -7.7,-3.5 -7.7,-8.4 c0,-4.9 3.5,-8.5 7.7,-8.5 s7.4,3.6 7.4,8.5 S126.80000152587891,408 122.6000015258789,408 L122.6000015258789,408 zM139.8000015258789,372 h6.1 v41.1 h-6.1 V372 zM162.1000015258789,385.7 c-7.2,0 -13.3,5.6 -13.3,14 c0,7.9 6,14 13.9,14 c6.5,0 10.2,-3.9 11.7,-6.2 l-4.8,-3.2 c-1.6,2.3 -3.9,3.9 -6.9,3.9 c-3.2,0 -5.4,-1.4 -6.8,-4.3 l18.8,-7.7 l-0.6000000000000001,-1.6 C173.0000015258789,391.5 169.4000015258789,385.7 162.1000015258789,385.7 L162.1000015258789,385.7 zM154.9000015258789,399.3 c-0.2,-5.4 4.3,-8.2 7.4,-8.2 c2.4,0 4.6,1.2 5.2,3 L154.9000015258789,399.3 z" id="svg_19"/>
		<g id="svg_20">
			<path class="st14" d="M207.80000152587888,411.8 c-2.7,0 -5.1,-0.5 -7.4,-1.5 c-2.3,-1 -4.3,-2.3 -5.9,-4 c-1.7000000000000002,-1.7000000000000002 -3,-3.7 -3.9,-6 c-1,-2.3 -1.4,-4.7 -1.4,-7.3 c0,-2.6 0.5,-5 1.4,-7.3 c0.9,-2.3 2.3,-4.3 3.9,-6 c1.7000000000000002,-1.7000000000000002 3.6,-3 5.9,-4 c2.3,-1 4.8,-1.4 7.4,-1.4 s5.1,0.5 7.4,1.4 c2.3,1 4.3,2.3 5.9,4 c1.7000000000000002,1.7000000000000002 3,3.7 3.9,6 s1.4,4.7 1.4,7.3 c0,2.6 -0.5,5 -1.4,7.3 c-1,2.3 -2.3,4.3 -3.9,6 c-1.7000000000000002,1.7000000000000002 -3.6,3 -5.9,4 C212.9000015258789,411.3 210.50000152587893,411.8 207.80000152587888,411.8 zM207.80000152587888,405.4 c1.7000000000000002,0 3.2,-0.30000000000000004 4.7,-0.9 c1.5,-0.6000000000000001 2.7,-1.4 3.8,-2.5 c1.1,-1.1 1.9,-2.4 2.5,-3.9 c0.6000000000000001,-1.5 0.9,-3.2 0.9,-5 c0,-1.8 -0.30000000000000004,-3.5 -0.9,-5 c-0.6000000000000001,-1.5 -1.5,-2.8 -2.5,-3.9 c-1.1,-1.1 -2.4,-1.9 -3.8,-2.5 c-1.4,-0.6000000000000001 -3,-0.9 -4.7,-0.9 s-3.2,0.30000000000000004 -4.7,0.9 c-1.5,0.6000000000000001 -2.7,1.4 -3.8,2.5 c-1.1,1.1 -1.9,2.4 -2.5,3.9 c-0.6000000000000001,1.5 -0.9,3.2 -0.9,5 c0,1.8 0.30000000000000004,3.5 0.9,5 c0.6000000000000001,1.5 1.5,2.8 2.5,3.9 c1.1,1.1 2.3,1.9 3.8,2.5 S206.1000015258789,405.4 207.80000152587888,405.4 z" id="svg_21"/>
			<path class="st14" d="M230.9000015258789,386.5 h6.2 v3 h0.4 c0.6000000000000001,-1 1.5,-1.9 2.8,-2.7 c1.3,-0.7000000000000001 2.8,-1.1 4.7,-1.1 c1.6,0 3.1,0.30000000000000004 4.5,1 c1.4,0.7000000000000001 2.7,1.5 3.8,2.7 c1.1,1.2 1.9,2.5 2.6,4.1 c0.6000000000000001,1.6 1,3.3 1,5.2 s-0.30000000000000004,3.7 -1,5.2 c-0.6000000000000001,1.6 -1.5,3 -2.6,4.1 c-1.1,1.2 -2.3,2 -3.8,2.7 c-1.4,0.6000000000000001 -2.9,1 -4.5,1 c-1.9,0 -3.4,-0.4 -4.7,-1.1 c-1.3,-0.7000000000000001 -2.2,-1.6 -2.8,-2.7 h-0.4 l0.4,3.5 v10.2 H230.9000015258789 V386.5 zM243.6000015258789,405.8 c0.9,0 1.7000000000000002,-0.2 2.5,-0.5 c0.8,-0.30000000000000004 1.5,-0.8 2.1,-1.4 c0.6000000000000001,-0.6000000000000001 1.1,-1.3 1.5,-2.2 c0.4,-0.9 0.5,-1.8 0.5,-2.9 c0,-1.1 -0.2,-2 -0.5,-2.9 c-0.4,-0.9 -0.8,-1.6 -1.5,-2.2 c-0.6000000000000001,-0.6000000000000001 -1.3,-1.1 -2.1,-1.4 c-0.8,-0.30000000000000004 -1.6,-0.5 -2.5,-0.5 c-0.9,0 -1.7000000000000002,0.2 -2.5,0.5 c-0.8,0.30000000000000004 -1.5,0.8 -2.1,1.4 c-0.6000000000000001,0.6000000000000001 -1.1,1.3 -1.5,2.2 c-0.4,0.9 -0.5,1.9 -0.5,3 s0.2,2.1 0.5,3 c0.4,0.9 0.9,1.6 1.5,2.2 c0.6000000000000001,0.6000000000000001 1.3,1.1 2.1,1.4 C241.9000015258789,405.6 242.80000152587888,405.8 243.6000015258789,405.8 z" id="svg_22"/>
			<path class="st14" d="M262.6000015258789,392.1 h-4.3 v-5.6 h4.3 V379 h6.5 v7.5 h6 v5.6 h-6 v9.8 c0,0.6000000000000001 0.1,1.1 0.2,1.6 s0.30000000000000004,0.9 0.7000000000000001,1.3 c0.5,0.6000000000000001 1.1,0.8 2,0.8 c0.6000000000000001,0 1,-0.1 1.3,-0.2 c0.30000000000000004,-0.1 0.7000000000000001,-0.30000000000000004 1,-0.5 l1.8,5.8 c-0.8,0.4 -1.6,0.6000000000000001 -2.5,0.8 c-0.9,0.2 -1.9,0.30000000000000004 -2.9,0.30000000000000004 c-1.2,0 -2.3,-0.2 -3.3,-0.6000000000000001 c-1,-0.4 -1.8,-0.9 -2.5,-1.6 c-1.6,-1.5 -2.3,-3.7 -2.3,-6.5 V392.1 z" id="svg_23"/>
			<path class="st14" d="M283.9000015258789,383.2 c-0.6000000000000001,0 -1.1,-0.1 -1.6,-0.30000000000000004 c-0.5,-0.2 -1,-0.5 -1.4,-0.9 c-0.4,-0.4 -0.7000000000000001,-0.8 -0.9,-1.3 c-0.2,-0.5 -0.30000000000000004,-1.1 -0.30000000000000004,-1.7000000000000002 s0.1,-1.2 0.30000000000000004,-1.7000000000000002 c0.2,-0.5 0.5,-0.9 0.9,-1.3 s0.8,-0.7000000000000001 1.4,-0.9 c0.5,-0.2 1.1,-0.30000000000000004 1.6,-0.30000000000000004 c1.2,0 2.2,0.4 3,1.2 c0.8,0.8 1.2,1.8 1.2,3 c0,1.2 -0.4,2.2 -1.2,3 C286.00000152587893,382.8 285.00000152587893,383.2 283.9000015258789,383.2 zM280.6000015258789,411 v-24.5 h6.5 V411 H280.6000015258789 z" id="svg_24"/>
			<path class="st14" d="M293.2000015258789,386.5 h6.2 v3.2 h0.4 c0.8,-1.2 1.8,-2.2 3.1,-2.9 c1.3,-0.7000000000000001 2.8,-1.1 4.4,-1.1 c1.9,0 3.4,0.4 4.7,1.3 c1.3,0.9 2.2,1.9 2.7,3.2 c0.8,-1.2 1.8,-2.3 3.2,-3.2 s3.1,-1.3 5.1,-1.3 c1.5,0 2.8,0.2 3.9,0.7000000000000001 c1.1,0.5 2,1.2 2.7,2 c0.7000000000000001,0.9 1.3,1.9 1.6,3.1 s0.6000000000000001,2.5 0.6000000000000001,4 V411 h-6.6 v-14.2 c0,-3.3 -1.4,-5 -4.1,-5 c-0.9,0 -1.6,0.2 -2.3,0.6000000000000001 c-0.7000000000000001,0.4 -1.2,0.9 -1.7000000000000002,1.5 c-0.5,0.7000000000000001 -0.8,1.4 -1.1,2.3 c-0.2,0.9 -0.4,1.9 -0.4,2.9 V411 h-6.5 v-14.2 c0,-3.3 -1.4,-5 -4.3,-5 c-0.8,0 -1.6,0.2 -2.2,0.6000000000000001 c-0.6000000000000001,0.4 -1.2,0.9 -1.6,1.5 c-0.4,0.7000000000000001 -0.8,1.4 -1,2.3 c-0.2,0.9 -0.4,1.9 -0.4,2.9 V411 h-6.5 V386.5 z" id="svg_25"/>
			<path class="st14" d="M340.8000015258789,383.2 c-0.6000000000000001,0 -1.1,-0.1 -1.6,-0.30000000000000004 c-0.5,-0.2 -1,-0.5 -1.4,-0.9 c-0.4,-0.4 -0.7000000000000001,-0.8 -0.9,-1.3 c-0.2,-0.5 -0.30000000000000004,-1.1 -0.30000000000000004,-1.7000000000000002 s0.1,-1.2 0.30000000000000004,-1.7000000000000002 c0.2,-0.5 0.5,-0.9 0.9,-1.3 s0.8,-0.7000000000000001 1.4,-0.9 c0.5,-0.2 1.1,-0.30000000000000004 1.6,-0.30000000000000004 c1.2,0 2.2,0.4 3,1.2 c0.8,0.8 1.2,1.8 1.2,3 c0,1.2 -0.4,2.2 -1.2,3 C343.00000152587893,382.8 342.00000152587893,383.2 340.8000015258789,383.2 zM337.6000015258789,411 v-24.5 h6.5 V411 H337.6000015258789 z" id="svg_26"/>
			<path class="st14" d="M348.9000015258789,405.6 l12.5,-13.5 h-12.1 v-5.6 h20.2 v5.4 l-12.5,13.5 h12.7 v5.6 H348.9000015258789 V405.6 z" id="svg_27"/>
			<path class="st14" d="M396.8000015258789,405.1 c-1.1,2 -2.7,3.6 -4.6,4.9 c-1.9,1.2 -4.3,1.8 -7,1.8 c-1.9,0 -3.6,-0.30000000000000004 -5.2,-1 c-1.6,-0.7000000000000001 -3,-1.6 -4.1,-2.7 c-1.2,-1.2 -2.1,-2.5 -2.7,-4.1 c-0.7000000000000001,-1.6 -1,-3.3 -1,-5.2 c0,-1.8 0.30000000000000004,-3.4 0.9,-5 c0.6000000000000001,-1.6 1.5,-3 2.7,-4.1 c1.1,-1.2 2.5,-2.1 4,-2.8 c1.5,-0.7000000000000001 3.3,-1 5.1,-1 c2,0 3.7,0.30000000000000004 5.2,1 c1.5,0.7000000000000001 2.8,1.5 3.8,2.7 s1.8,2.5 2.3,4.1 c0.5,1.6 0.8,3.3 0.8,5.1 c0,0.2 0,0.4 0,0.6000000000000001 c0,0.2 -0.1,0.4 -0.1,0.5 c0,0.2 0,0.30000000000000004 0,0.5 h-18.5 c0.1,1 0.4,1.9 0.8,2.6 s0.9,1.3 1.5,1.8 c0.6000000000000001,0.5 1.3,0.8 2,1 c0.7000000000000001,0.2 1.5,0.30000000000000004 2.2,0.30000000000000004 c1.5,0 2.7,-0.30000000000000004 3.7,-1 c1,-0.7000000000000001 1.8,-1.5 2.3,-2.6 L396.8000015258789,405.1 zM390.8000015258789,395.6 c0,-0.4 -0.2,-0.9 -0.4,-1.4 s-0.6000000000000001,-1 -1.1,-1.5 c-0.5,-0.5 -1.1,-0.9 -1.8,-1.2 s-1.6,-0.5 -2.6,-0.5 c-1.4,0 -2.6,0.4 -3.7,1.2 c-1.1,0.8 -1.8,1.9 -2.2,3.3 H390.8000015258789 z" id="svg_28"/>
		</g>
	</g>
</g></g></svg>