<svg xmlns="http://www.w3.org/2000/svg" xmlns:xlink="http://www.w3.org/1999/xlink" version="1.1" style="enable-background:new 0 0 1200 800;" xml:space="preserve" width="603" height="752"><rect id="backgroundrect" width="100%" height="100%" x="0" y="0" fill="none" stroke="none"/>
<style type="text/css">
	.st0{fill:#333333;}
	.st1{fill:#666666;}
	.st2{fill:#FABC04;}
	.st3{fill:#34A852;}
	.st4{fill:#E1C025;}
	.st5{fill:#757575;}
</style>

<g class="currentLayer" style=""><title>Layer 1</title><g id="svg_1" class="">
	<path class="st0" d="M515.9999938964844,544.1893379211426 c-41.8,6.2 -81,-13 -102.6,-50.5 c-36.3,-63.2 -72.8,-126.4 -109.1,-189.4 c-0.7000000000000001,-1.3 -1.5,-2.4 -2.4,-3.5 c0.1,-0.1 0.1,-0.2 0.2,-0.4 c-2.4,-3.8 -4.3,-7.9 -6.7,-12 c-26.2,-45.7 -52.6,-91.3 -79.1,-136.8 c-10.1,-17.5 -15.1,-36.3 -14.4,-56.5 c0.5,-9.1 2.4,-17.8 4.6,-26.4 c5.8,-15.1 13.7,-29.1 25.5,-40.4 c47.1,-45.9 125,-34.4 156.9,23.3 c24,43.7 49.5,86.5 74.3,129.8 c41.3,71.9 83.2,143.7 124,215.8 C621.4999938964844,457.68933792114257 584.2999938964844,533.8893379211426 515.9999938964844,544.1893379211426 z" id="svg_2"/>
	<path class="st1" d="M302.0999938964844,300.4893379211426 c-0.1,0.1 -0.1,0.2 -0.2,0.4 c-14.4,24.9 -28.7,49.5 -43.3,74.4 c-20.2,34.8 -40.3,69.8 -60.7,104.6 l0.2,0.2 l-1.9,3.1 c0.4,-1.2 0.6000000000000001,-2.2 0.8,-3.3 c0,-0.2 0.1,-0.5 0.1,-0.7000000000000001 c5.3,-16.8 7,-33.7 3.9,-51.2 c-12.7,-73.1 -100.5,-106.5 -158.9,-60.3 c-4.8,3.8 -9.1,8.2 -13.7,12.3 c-0.2,0 -0.4,0 -0.5,0 c-1.5,0.30000000000000004 -1.3,1.7000000000000002 -2.2,2.6 c-0.1,-1.6 0.8,-2.5 1.7000000000000002,-3.6 l0.1,0.1 c11.5,-19.9 22.8,-39.8 34.3,-59.7 c47.6,-82.7 95.2,-165.4 143,-247.8 c0.5,-1 1.2,-1.7000000000000002 1.7000000000000002,-2.6 c-2.2,8.7 -4.1,17.3 -4.6,26.4 c-0.7000000000000001,20.2 4.3,38.9 14.4,56.5 c26.4,45.4 52.9,91.1 79.1,136.8 C297.79999389648435,292.5893379211426 299.69999389648433,296.68933792114257 302.0999938964844,300.4893379211426 z" id="svg_3"/>
	<path class="st2" d="M28.399993896484375,379.7893379211426 c-0.1,0.1 -0.2,0.2 -0.2,0.30000000000000004 c-0.1,-0.1 -0.2,-0.1 -0.30000000000000004,-0.2 C27.999993896484398,379.7893379211426 28.199993896484386,379.7893379211426 28.399993896484375,379.7893379211426 z" id="svg_4"/>
	<path class="st2" d="M197.09999389648436,479.0893379211426 c0,0.2 -0.1,0.5 -0.1,0.7000000000000001 c-0.1,-0.1 -0.2,-0.2 -0.2,-0.2 C196.79999389648435,479.38933792114256 196.89999389648438,479.18933792114257 197.09999389648436,479.0893379211426 z" id="svg_5"/>
	<path class="st0" d="M197.09999389648436,479.0893379211426 c-0.1,0.2 -0.30000000000000004,0.30000000000000004 -0.4,0.5 c0.1,0.1 0.2,0.2 0.2,0.2 c-0.2,1.1 -0.4,2.2 -0.8,3.3 c-2.2,3.8 -4.1,7.9 -6.5,11.8 c-21.4,35.3 -52.9,52.9 -94.2,50.2 c-47.4,-3.4 -84.6,-38.9 -91.1,-86 c-3.1,-22.8 1.4,-44.2 13.2,-63.9 c2.4,-4.3 5.3,-8.2 7.9,-12.5 c0.1,-0.1 0.1,-0.1 0.2,-0.2 c0.8,-0.9 0.7000000000000001,-2.4 2.2,-2.6 c0.1,0.1 0.2,0.2 0.30000000000000004,0.2 c0.1,-0.1 0.1,-0.2 0.2,-0.30000000000000004 c4.6,-4.1 8.9,-8.4 13.7,-12.3 c58.4,-46.1 146.1,-12.7 158.9,60.3 C204.09999389648436,445.38933792114256 202.39999389648438,462.18933792114257 197.09999389648436,479.0893379211426 z" id="svg_6"/>
	<path class="st3" d="M28.399993896484375,379.7893379211426 c-0.1,0.1 -0.2,0.2 -0.2,0.30000000000000004 c-0.1,-0.1 -0.2,-0.1 -0.30000000000000004,-0.2 C27.999993896484398,379.7893379211426 28.199993896484386,379.7893379211426 28.399993896484375,379.7893379211426 z" id="svg_7"/>
	<path class="st3" d="M197.09999389648436,479.0893379211426 c0,0.2 -0.1,0.5 -0.1,0.7000000000000001 c-0.1,-0.1 -0.2,-0.2 -0.2,-0.2 C196.79999389648435,479.38933792114256 196.89999389648438,479.18933792114257 197.09999389648436,479.0893379211426 z" id="svg_8"/>
	<path class="st2" d="M28.399993896484375,379.7893379211426 c-0.1,0.1 -0.2,0.2 -0.2,0.30000000000000004 c-0.1,-0.1 -0.2,-0.1 -0.30000000000000004,-0.2 C27.999993896484398,379.7893379211426 28.199993896484386,379.7893379211426 28.399993896484375,379.7893379211426 z" id="svg_9"/>
	<path class="st4" d="M197.09999389648436,479.0893379211426 c0,0.2 -0.1,0.5 -0.1,0.7000000000000001 c-0.1,-0.1 -0.2,-0.2 -0.2,-0.2 C196.79999389648435,479.38933792114256 196.89999389648438,479.18933792114257 197.09999389648436,479.0893379211426 z" id="svg_10"/>
	<path class="st5" d="M49.79999389648435,625.8893379211426 c-27.2,0 -49.8,21.9 -49.8,48.8 c0,26.9 22.6,48.5 49.8,48.5 c14.7,0 25.5,-4.8 34.1,-13.7 c8.9,-8.9 11.5,-21.2 11.5,-31 c0,-3.1 -0.2,-6 -0.7000000000000001,-8.4 h-44.9 v13.2 h32 c-1,7.5 -3.4,13 -7.2,16.8 c-4.6,4.6 -12,9.9 -24.8,9.9 c-19.7,0 -35.1,-15.9 -35.1,-35.3 c0,-19.5 15.4,-35.3 35.1,-35.3 c10.6,0 18.5,4.1 24,9.6 l9.4,-9.4 C75.19999389648439,631.8893379211426 64.69999389648439,625.8893379211426 49.79999389648435,625.8893379211426 zM131.1999938964844,660.7893379211425 c-17.1,0 -31.2,13.2 -31.2,31.7 c0,18.3 13.9,31.7 31.2,31.7 s31.2,-13.5 31.2,-31.7 S148.29999389648435,660.7893379211425 131.1999938964844,660.7893379211425 L131.1999938964844,660.7893379211425 zM131.1999938964844,711.6893379211426 c-9.4,0 -17.5,-7.9 -17.5,-19.2 s8.2,-19.2 17.5,-19.2 s17.5,7.7 17.5,19.2 C148.79999389648435,703.7893379211425 140.59999389648436,711.6893379211426 131.1999938964844,711.6893379211426 L131.1999938964844,711.6893379211426 zM198.9999938964844,660.7893379211425 c-17.3,0 -31.2,13.2 -31.2,31.7 c0,18.3 13.9,31.7 31.2,31.7 c17.1,0 31.2,-13.5 31.2,-31.7 S216.29999389648435,660.7893379211425 198.9999938964844,660.7893379211425 L198.9999938964844,660.7893379211425 zM198.9999938964844,711.6893379211426 c-9.4,0 -17.5,-7.9 -17.5,-19.2 s8.2,-19.2 17.5,-19.2 s17.5,7.7 17.5,19.2 C216.59999389648442,703.7893379211425 208.59999389648436,711.6893379211426 198.9999938964844,711.6893379211426 L198.9999938964844,711.6893379211426 zM266.4999938964844,660.7893379211425 c-15.6,0 -29.8,13.7 -29.8,31.5 c0,17.5 14.2,31.2 29.8,31.2 c7.5,0 13.2,-3.4 16.3,-7.2 h0.5 v4.6 c0,12 -6.2,18.5 -16.6,18.5 c-8.4,0 -13.5,-6 -15.6,-11.1 l-12,5 c3.4,8.4 12.5,18.5 27.6,18.5 c16.1,0 29.6,-9.6 29.6,-32.7 v-56.2 h-13 v5 h-0.5 C279.79999389648435,664.0893379211426 273.9999938964844,660.7893379211425 266.4999938964844,660.7893379211425 L266.4999938964844,660.7893379211425 zM267.69999389648433,711.1893379211426 c-9.4,0 -17.3,-7.9 -17.3,-19 S258.3999938964844,672.9893379211426 267.69999389648433,672.9893379211426 s16.6,8.2 16.6,19.2 S277.0999938964844,711.1893379211426 267.69999389648433,711.1893379211426 L267.69999389648433,711.1893379211426 zM306.3999938964844,629.7893379211425 h13.7 v92.8 H306.3999938964844 V629.7893379211425 zM356.8999938964844,660.7893379211425 c-16.3,0 -30,12.7 -30,31.7 c0,17.8 13.5,31.7 31.5,31.7 c14.7,0 23.1,-8.9 26.4,-13.9 l-10.8,-7.2 c-3.6,5.3 -8.7,8.7 -15.6,8.7 c-7.2,0 -12.3,-3.1 -15.4,-9.6 l42.5,-17.5 l-1.4,-3.6 C381.3999938964844,673.9893379211426 373.29999389648435,660.7893379211425 356.8999938964844,660.7893379211425 L356.8999938964844,660.7893379211425 zM340.5999938964844,691.4893379211426 c-0.5,-12.3 9.6,-18.5 16.6,-18.5 c5.5,0 10.3,2.6 11.8,6.7 L340.5999938964844,691.4893379211426 z" id="svg_11"/>
	<path class="st5" d="M409.4999938964844,721.0893379211426 l31.7,-84.4 h12.3 l31.7,84.4 h-12 l-8.2,-22.8 h-35.3 l-8.2,22.8 H409.4999938964844 zM433.29999389648435,688.1893379211426 h28.1 l-13.7,-38 h-0.5 L433.29999389648435,688.1893379211426 z" id="svg_12"/>
	<path class="st5" d="M496.29999389648435,714.0893379211426 c-5.3,-6 -7.9,-13.2 -7.9,-21.9 c0,-8.4 2.6,-15.6 7.9,-21.9 c5.5,-6 11.8,-8.9 19.5,-8.9 c4.3,0 8.2,1 11.5,2.6 c3.6,1.9 6.2,4.1 8.2,7.2 h0.5 l-0.5,-7.9 v-26.7 h10.8 v84.4 h-10.3 v-7.9 h-0.5 c-1.9,2.9 -4.6,5.3 -8.2,7.2 s-7.5,2.6 -11.5,2.6 C508.0999938964844,722.9893379211426 501.5999938964844,720.0893379211426 496.29999389648435,714.0893379211426 L496.29999389648435,714.0893379211426 zM530.3999938964844,707.3893379211426 c3.6,-3.8 5.3,-8.9 5.3,-15.1 c0,-6 -1.7000000000000002,-11.1 -5.3,-14.9 c-3.4,-3.8 -7.7,-5.8 -13,-5.8 c-5.3,0 -9.6,1.9 -13,5.8 c-3.6,3.8 -5.3,8.9 -5.3,14.9 s1.7000000000000002,11.1 5.3,14.9 s7.9,5.8 13,5.8 C522.6999938964843,713.1893379211426 527.0999938964844,711.1893379211426 530.3999938964844,707.3893379211426 L530.3999938964844,707.3893379211426 z" id="svg_13"/>
	<path class="st5" d="M596.2999938964844,717.6893379211426 c-4.3,3.4 -9.9,5.3 -16.6,5.3 c-5.8,0 -10.8,-1.4 -15.4,-4.6 c-4.3,-3.1 -7.5,-7 -9.4,-12 l9.6,-4.1 c1.4,3.4 3.4,6.2 6.2,8.2 c2.6,1.9 5.8,2.9 8.9,2.9 c3.4,0 6.2,-0.7000000000000001 8.7,-2.2 s3.4,-3.4 3.4,-5.3 c0,-3.6 -2.9,-6.5 -8.4,-8.2 l-9.9,-2.4 c-11.3,-2.9 -16.8,-8.2 -16.8,-16.3 c0,-5.3 2.2,-9.4 6.5,-12.7 c4.3,-3.1 9.9,-4.8 16.3,-4.8 c5,0 9.6,1.2 13.9,3.6 c4.1,2.4 7,5.8 8.7,9.9 L592.3999938964844,678.9893379211426 c-1.2,-2.4 -2.9,-4.3 -5.3,-5.8 s-5.3,-2.2 -8.4,-2.2 c-2.9,0 -5.3,0.7000000000000001 -7.7,2.2 c-2.2,1.4 -3.4,3.1 -3.4,5.3 c0,3.4 3.1,5.8 9.4,7 l8.7,2.2 c11.5,2.9 17.1,8.7 17.1,17.3 C602.9999938964844,709.9893379211426 600.5999938964844,714.3893379211426 596.2999938964844,717.6893379211426 L596.2999938964844,717.6893379211426 z" id="svg_14"/>
</g></g></svg>