<svg width="13" height="14" viewBox="0 0 13 14" fill="none" xmlns="http://www.w3.org/2000/svg">
<path d="M11.6607 0.333374H5.00666C4.266 0.333374 3.66666 0.932708 3.66666 1.67337V5.43137L0.531995 8.52604C0.438071 8.61893 0.373862 8.73763 0.347516 8.86708C0.321169 8.99653 0.333874 9.13088 0.384016 9.25309C0.434159 9.37531 0.519479 9.47987 0.629149 9.55351C0.738819 9.62715 0.867895 9.66655 0.999995 9.66671V13C0.999995 13.1769 1.07023 13.3464 1.19526 13.4714C1.32028 13.5965 1.48985 13.6667 1.66666 13.6667H12.3333C12.5101 13.6667 12.6797 13.5965 12.8047 13.4714C12.9298 13.3464 13 13.1769 13 13V1.67271C13 0.932707 12.4013 0.333374 11.6607 0.333374ZM6.28133 9.07404V12.3334H2.33333V8.62137L4.32466 6.65537L6.28133 8.65737V9.07404ZM7.66666 5.00004H6.33333V3.66671H7.66666V5.00004ZM10.3333 10.3334H9V9.00004H10.3333V10.3334ZM10.3333 7.66671H9V6.33337H10.3333V7.66671ZM10.3333 5.00004H9V3.66671H10.3333V5.00004Z" fill="#5D677E"/>
</svg>
