<svg width="21" height="19" viewBox="0 0 21 19" fill="none" xmlns="http://www.w3.org/2000/svg">
<path d="M13.2685 15.4186L12.3252 16.3373L12.5467 17.6334C12.6287 18.1256 12.1078 18.4947 11.673 18.2651L10.5082 17.6539L9.34335 18.2651C8.90038 18.4988 8.38769 18.1215 8.46972 17.6334L8.6912 16.3373L7.74785 15.4186C7.39101 15.074 7.58788 14.467 8.08007 14.3973L9.38027 14.2086L9.96269 13.0274C10.1801 12.5844 10.8199 12.5803 11.0373 13.0274L11.6197 14.2086L12.9199 14.3973C13.4121 14.467 13.6049 15.074 13.2685 15.4186ZM6.23027 14.3973L4.93007 14.2086L4.34765 13.0274C4.13027 12.5844 3.49042 12.5844 3.27304 13.0274L2.68652 14.2086L1.38632 14.3973C0.894134 14.467 0.697259 15.074 1.0541 15.4186L1.99745 16.3373L1.77187 17.6375C1.68984 18.1256 2.20253 18.5029 2.6455 18.2692L3.81035 17.658L4.97519 18.2692C5.40996 18.4988 5.93085 18.1297 5.84882 17.6375L5.62734 16.3414L6.5707 15.4227C6.91933 15.074 6.71835 14.467 6.23027 14.3973ZM19.6096 14.3973L18.3094 14.2086L17.7269 13.0274C17.5629 12.6992 17.2266 12.691 17.1896 12.691C16.96 12.691 16.7549 12.8223 16.6523 13.0274L16.0699 14.2086L14.7697 14.3973C14.2775 14.467 14.0807 15.074 14.4375 15.4186L15.3809 16.3373L15.1594 17.6334C15.0773 18.1215 15.59 18.4988 16.033 18.2651L17.1978 17.6539L18.3627 18.2651C18.7975 18.4947 19.3184 18.1256 19.2363 17.6334L19.0148 16.3373L19.9582 15.4186C20.2986 15.074 20.1018 14.467 19.6096 14.3973ZM16.398 10.0496C16.398 10.874 15.7295 11.5426 14.9051 11.5426H6.12773C5.30331 11.5426 4.63476 10.874 4.63476 10.0496C4.63476 8.02345 6.09902 6.33771 8.02675 5.98908C7.55507 5.42306 7.26796 4.69709 7.26796 3.90549C7.26796 2.1131 8.72402 0.657043 10.5164 0.657043C12.3088 0.657043 13.7648 2.1131 13.7648 3.90549C13.7648 4.69709 13.4777 5.42306 13.006 5.98908C14.9338 6.33771 16.398 8.02755 16.398 10.0496ZM8.49843 3.90549C8.49843 5.01701 9.40488 5.92345 10.5164 5.92345C11.6279 5.92345 12.5344 5.01701 12.5344 3.90549C12.5344 2.79396 11.6279 1.88751 10.5164 1.88751C9.40488 1.88751 8.49843 2.79396 8.49843 3.90549ZM15.1676 10.0496C15.1676 8.45412 13.8674 7.15392 12.2719 7.15392H8.76093C7.16542 7.15392 5.86523 8.45412 5.86523 10.0496C5.86523 10.1932 5.98417 10.3121 6.12773 10.3121H14.9051C15.0486 10.3121 15.1676 10.1973 15.1676 10.0496Z" fill="#2C85C9"/>
</svg>
