<svg xmlns="http://www.w3.org/2000/svg" width="22.13" height="22.125" viewBox="0 0 22.13 22.125">
  <path id="Icon_ionic-ios-globe" data-name="Icon ionic-ios-globe" d="M14.437,3.375H14.4A11.063,11.063,0,0,0,14.406,25.5h.037a11.063,11.063,0,1,0-.005-22.125Zm9.584,10.318H19.894a20.945,20.945,0,0,0-.521-4.053,16.2,16.2,0,0,0,2.643-1.117A9.528,9.528,0,0,1,24.021,13.693Zm-10.329,0H10.406a18.9,18.9,0,0,1,.468-3.675,16.181,16.181,0,0,0,2.819.378Zm0,1.489v3.292a16.249,16.249,0,0,0-2.819.378,18.9,18.9,0,0,1-.468-3.67Zm1.489,0h3.26a18.793,18.793,0,0,1-.468,3.664,15.875,15.875,0,0,0-2.792-.372Zm0-1.489V10.4a16.25,16.25,0,0,0,2.792-.372,18.849,18.849,0,0,1,.468,3.67ZM21,7.422a14.775,14.775,0,0,1-2.021.824,10.981,10.981,0,0,0-1.409-2.9A9.624,9.624,0,0,1,21,7.422ZM17.575,8.63a14.968,14.968,0,0,1-2.393.319v-3.9A6.444,6.444,0,0,1,17.575,8.63ZM13.693,5.024v3.92a14.71,14.71,0,0,1-2.42-.324A6.441,6.441,0,0,1,13.693,5.024Zm-2.425.34a11.068,11.068,0,0,0-1.4,2.877,15.107,15.107,0,0,1-1.994-.819A9.48,9.48,0,0,1,11.268,5.364ZM6.859,8.529A15.881,15.881,0,0,0,9.475,9.635a20.1,20.1,0,0,0-.521,4.053h-4.1A9.479,9.479,0,0,1,6.859,8.529ZM4.854,15.182h4.1a20.891,20.891,0,0,0,.521,4.053,16.85,16.85,0,0,0-2.617,1.106A9.53,9.53,0,0,1,4.854,15.182Zm3.016,6.271a14.885,14.885,0,0,1,2-.819,11.107,11.107,0,0,0,1.4,2.883A9.716,9.716,0,0,1,7.869,21.453Zm3.4-1.2a14.787,14.787,0,0,1,2.42-.324v3.925A6.431,6.431,0,0,1,11.273,20.251Zm3.909,3.579V19.921a14.968,14.968,0,0,1,2.393.319A6.441,6.441,0,0,1,15.182,23.83Zm2.393-.3a10.981,10.981,0,0,0,1.409-2.9,14.532,14.532,0,0,1,2.021.83A9.735,9.735,0,0,1,17.575,23.527Zm4.441-3.18a16.2,16.2,0,0,0-2.643-1.117,20.835,20.835,0,0,0,.521-4.047h4.127A9.487,9.487,0,0,1,22.016,20.346Z" transform="translate(-3.375 -3.375)"/>
</svg>
