<svg width="15" height="15" viewBox="0 0 15 15" fill="none" xmlns="http://www.w3.org/2000/svg">
<path d="M9.5464 9.4552C9.5464 9.4552 15.1936 5.38 14.5672 0.715998C14.561 0.636797 14.5296 0.561664 14.4776 0.501598C14.4199 0.448062 14.3457 0.415637 14.2672 0.409598C9.7096 -0.231202 5.728 5.5472 5.728 5.5472C2.2736 5.1336 2.5248 5.8224 0.948804 9.608C0.647204 10.3296 1.136 10.5784 1.672 10.3752L3.3904 9.7264L5.4624 11.8448L4.828 13.604C4.6296 14.1528 4.872 14.6528 5.5784 14.3448C9.2776 12.732 9.9512 12.9896 9.5464 9.4552ZM10.3536 4.7224C10.1234 4.48456 9.99477 4.16656 9.99477 3.8356C9.99477 3.50463 10.1234 3.18663 10.3536 2.9488C10.4661 2.83282 10.6008 2.74062 10.7496 2.67765C10.8985 2.61469 11.0584 2.58224 11.22 2.58224C11.3816 2.58224 11.5416 2.61469 11.6904 2.67765C11.8392 2.74062 11.9739 2.83282 12.0864 2.9488C12.3166 3.18663 12.4452 3.50463 12.4452 3.8356C12.4452 4.16656 12.3166 4.48456 12.0864 4.7224C11.9739 4.83838 11.8392 4.93058 11.6904 4.99354C11.5416 5.05651 11.3816 5.08895 11.22 5.08895C11.0584 5.08895 10.8985 5.05651 10.7496 4.99354C10.6008 4.93058 10.4661 4.83838 10.3536 4.7224Z" fill="#5D677E"/>
</svg>
