<svg width="21" height="17" viewBox="0 0 21 17" fill="none" xmlns="http://www.w3.org/2000/svg">
<path d="M16.8 7.35V9.45H21V7.35H16.8ZM14.7 14.2905C15.708 15.036 17.0205 16.023 18.06 16.8C18.48 16.2435 18.9 15.6765 19.32 15.12C18.2805 14.343 16.968 13.356 15.96 12.6C15.54 13.167 15.12 13.734 14.7 14.2905ZM19.32 1.68C18.9 1.1235 18.48 0.5565 18.06 0C17.0205 0.777 15.708 1.764 14.7 2.52C15.12 3.0765 15.54 3.6435 15.96 4.2C16.968 3.444 18.2805 2.4675 19.32 1.68ZM2.1 5.25C0.945 5.25 0 6.195 0 7.35V9.45C0 10.605 0.945 11.55 2.1 11.55H3.15V15.75H5.25V11.55H6.3L11.55 14.7V2.1L6.3 5.25H2.1ZM14.175 8.4C14.175 7.0035 13.566 5.7435 12.6 4.8825V11.907C13.566 11.0565 14.175 9.7965 14.175 8.4Z" fill="#2C85C9"/>
</svg>
