<?xml version="1.0" encoding="utf-8"?>
<!-- Generator: Adobe Illustrator 22.1.0, SVG Export Plug-In . SVG Version: 6.00 Build 0)  -->
<svg version="1.1" id="Capa_1" xmlns="http://www.w3.org/2000/svg" xmlns:xlink="http://www.w3.org/1999/xlink" x="0px" y="0px"
	 viewBox="0 0 113.5 113.5" style="enable-background:new 0 0 113.5 113.5;" xml:space="preserve">
<style type="text/css">
	.st0{fill:#2C85C9;}
</style>
<g>
	<g>
		<path class="st0" d="M103.8,9.8c0-0.8-0.7-1.5-1.5-1.5H81.9c-0.8,0-1.5,0.7-1.5,1.5v14.6v21.5l23.3-27.4V9.8z"/>
		<path class="st0" d="M80.4,89.1v14.6c0,0.8,0.7,1.5,1.5,1.5h20.3c0.8,0,1.5-0.7,1.5-1.5V76.1v-4.6V34L80.4,61.4V89.1z"/>
		<path class="st0" d="M44.1,83.8v9.5v10.5c0,0.8,0.7,1.5,1.5,1.5h20.3c0.8,0,1.5-0.7,1.5-1.5v-7.3V67l-10.1-2.9L44.1,83.8z"/>
		<path class="st0" d="M56.7,53.5l10.8,3.1v-16v-7.3c0-0.8-0.7-1.5-1.5-1.5H45.6c-0.8,0-1.5,0.7-1.5,1.5v10.5v22.1l7-10.4
			C52.3,53.6,54.6,52.8,56.7,53.5z"/>
		<path class="st0" d="M24.9,64.9l8.2,7.9v-9.7V50.8c0-0.8-0.7-1.5-1.5-1.5H11.3c-0.8,0-1.5,0.7-1.5,1.5v15.7v5.2l8.5-7
			C20.2,63,23.1,63.1,24.9,64.9z"/>
		<path class="st0" d="M9.8,84.6v3.5v15.7c0,0.8,0.7,1.5,1.5,1.5h20.3c0.8,0,1.5-0.7,1.5-1.5v-17L21.1,75.2L9.8,84.6z"/>
		<path class="st0" d="M112.6,16.6c-1-0.9-2.6-0.8-3.5,0.3L71.6,60.8l-15.4-4.5c-1-0.3-2.2,0.1-2.8,1L37.6,80.8L23.4,67.1
			c-0.9-0.9-2.3-0.9-3.3-0.1L0.9,82.7c-1.1,0.9-1.2,2.5-0.3,3.5c0.5,0.6,1.2,0.9,1.9,0.9c0.6,0,1.1-0.2,1.6-0.6l17.4-14.3l14.7,14.2
			c0.5,0.5,1.3,0.8,2,0.7c0.7-0.1,1.4-0.5,1.8-1.1l16.5-24.5L71.8,66c0.9,0.3,2,0,2.6-0.8l38.5-45.1
			C113.8,19.1,113.7,17.5,112.6,16.6z"/>
	</g>
</g>
</svg>
