<svg width="24" height="16" viewBox="0 0 24 16" fill="none" xmlns="http://www.w3.org/2000/svg">
<path d="M5.75 4.25H18.25V11.75H5.75V4.25ZM20.75 0.5C22.1289 0.5 23.25 1.61914 23.25 3V6.125C22.2148 6.125 21.375 6.96484 21.375 8C21.375 9.0352 22.2148 9.875 23.25 9.875V13C23.25 14.3789 22.1289 15.5 20.75 15.5H3.25C1.86914 15.5 0.75 14.3789 0.75 13V9.875C1.78555 9.875 2.625 9.0352 2.625 8C2.625 6.96484 1.78555 6.125 0.75 6.125V3C0.75 1.61914 1.86914 0.5 3.25 0.5H20.75ZM4.5 11.75C4.5 12.4414 5.05859 13 5.75 13H18.25C18.9414 13 19.5 12.4414 19.5 11.75V4.25C19.5 3.55859 18.9414 3 18.25 3H5.75C5.05859 3 4.5 3.55859 4.5 4.25V11.75Z" fill="#2C85C9"/>
</svg>
