<svg width="19" height="20" viewBox="0 0 19 20" fill="none" xmlns="http://www.w3.org/2000/svg">
<path d="M5.125 4.375C5.125 1.95859 7.08203 0 9.5 0C11.918 0 13.875 1.95859 13.875 4.375V6.25H16.375C17.4102 6.25 18.25 7.08984 18.25 8.125V16.25C18.25 18.3203 16.5703 20 14.5 20H4.5C2.42891 20 0.75 18.3203 0.75 16.25V8.125C0.75 7.08984 1.58945 6.25 2.625 6.25H5.125V4.375ZM7 6.25H12V4.375C12 2.99414 10.8789 1.875 9.5 1.875C8.12109 1.875 7 2.99414 7 4.375V6.25ZM6.0625 10C6.58203 10 7 9.58203 7 9.0625C7 8.54297 6.58203 8.125 6.0625 8.125C5.54297 8.125 5.125 8.54297 5.125 9.0625C5.125 9.58203 5.54297 10 6.0625 10ZM12.9375 8.125C12.418 8.125 12 8.54297 12 9.0625C12 9.58203 12.418 10 12.9375 10C13.457 10 13.875 9.58203 13.875 9.0625C13.875 8.54297 13.457 8.125 12.9375 8.125Z" fill="#2C85C9"/>
</svg>
