<svg xmlns="http://www.w3.org/2000/svg" xmlns:xlink="http://www.w3.org/1999/xlink" version="1.1" style="enable-background:new 0 0 1200 800;" xml:space="preserve" width="1176" height="287"><rect id="backgroundrect" width="100%" height="100%" x="0" y="0" fill="none" stroke="none"/>
<style type="text/css">
	.st0{fill:#666666;}
	.st1{fill:#333333;}
</style>



<g class="currentLayer" style=""><title>Layer 1</title><path class="st0" d="M1159.2999996185304,268.6008178710938 C1159.2999996185304,268.6008178710938 1159.2999996185304,268.6008178710938 1159.2999996185304,268.6008178710938 c2.9,0 5.3,-2.4 5.3,-5.3 c0,-0.1 0,-0.2 0,-0.30000000000000004 c0,-4 -2.4,-5.8 -7.3,-5.8 h-7.9 v20.7 h3 v-9 h3.7 l0.1,0.1 l5.7,8.9 h3.2 l-6.1,-9.2 L1159.2999996185304,268.6008178710938 zM1155.7999996185304,266.5008178710938 h-3.5 v-7 h4.4 c2.3,0 4.8,0.4 4.8,3.3 C1161.5999996185303,266.3008178710937 1158.9999996185302,266.5008178710938 1155.7999996185304,266.5008178710938 M-3.8146972691777137e-7,42.10081787109374 H43.89999961853027 v160 h81.3 v40.5 H-3.8146972691777137e-7 V42.10081787109374 zM144.69999961853028,106.70081787109376 H186.89999961853027 v135.9 h-42.2 V106.70081787109376 zM165.79999961853028,39.20081787109376 c13.4,0 24.5,11.1 24.5,24.5 c0,13.4 -11,24.5 -24.5,24.5 c-13.4,0 -24.5,-11 -24.5,-24.5 S152.29999961853028,39.20081787109376 165.79999961853028,39.20081787109376 C165.79999961853028,39.20081787109376 165.79999961853028,39.20081787109376 165.79999961853028,39.20081787109376 M363.3999996185303,42.10081787109374 h42.2 v119.8 l47.8,-55.3 h51.7 l-55.4,62.9 l54.2,73.1 h-53 l-44.8,-67.2 h-0.6000000000000001 v67.2 h-42.2 L363.3999996185303,42.10081787109374 zM210.29999961853028,106.70081787109376 h40.5 v18.6 h0.6000000000000001 c8.2,-14.1 23.6,-22.6 40,-22 c42.8,0 50.7,28.2 50.7,64.7 v74.5 h-42.2 v-66.1 c0,-15.8 -0.30000000000000004,-36 -22,-36 c-21.9,0 -25.3,17.2 -25.3,34.9 v67.2 h-42.2 L210.29999961853028,106.70081787109376 z" id="svg_1"/><path class="st0" d="M593.9999996185303,158.80081787109373 c0,-0.2 0,-0.4 0,-0.6000000000000001 c0,-13.9 -11.4,-25.3 -25.3,-25.3 c-0.2,0 -0.4,0 -0.6000000000000001,0 c-15.2,-0.9 -28.6,10.7 -29.8,25.9 H593.9999996185303 zM629.6999996185302,219.10081787109374 c-14.2,17.2 -35.4,27.1 -57.7,27 c-42.2,0 -76,-28.2 -76,-71.8 s33.8,-71.8 76,-71.8 c39.4,0 64.2,28.1 64.2,71.8 v13.2 h-97.9 c2.5,15.4 16.2,26.8 31.8,26.5 c12.2,-0.1 23.5,-6.3 30.1,-16.6 L629.6999996185302,219.10081787109374 zM724.0999996185303,139.60081787109374 c-21.1,0 -33.8,14.1 -33.8,34.6 c0,20.5 12.7,34.6 33.8,34.6 s33.8,-14.1 33.8,-34.6 C757.8999996185303,153.60081787109374 745.2999996185303,139.60081787109374 724.0999996185303,139.60081787109374 M796.7999996185303,242.60081787109374 H757.8999996185303 v-18 h-0.6000000000000001 c-9.9,13.3 -25.4,21.2 -41.9,21.4 c-40.5,0 -67.2,-29.3 -67.2,-70.6 c0,-38 23.6,-72.9 62.5,-72.9 c17.5,0 33.8,4.8 43.3,18 h0.6000000000000001 v-78.3 h42.2 L796.7999996185303,242.60081787109374 zM1156.1999996185302,248.00081787109377 c-10.6,0.1 -19.2,8.8 -19.2,19.4 c0,10.7 8.8,19.4 19.4,19.4 c10.7,0 19.4,-8.8 19.4,-19.4 c0,-10.6 -8.6,-19.3 -19.2,-19.4 H1156.1999996185302 M1156.1999996185302,284.6008178710938 c-0.1,0 -0.2,0 -0.30000000000000004,0 c-9.3,0 -17,-7.7 -17,-17 c0,-9.3 7.7,-17 17,-17 c9.2,0 16.9,7.5 17,16.7 v0.30000000000000004 c0.2,9.1 -7.2,16.8 -16.3,17 L1156.1999996185302,284.6008178710938 " id="svg_2"/><path class="st1" d="M1102.6999996185302,0.0008178710937727374 L1102.6999996185302,0.0008178710937727374 l-242.7,0 c-11.4,-0.1 -20.9,9.1 -21,20.5 v243.7 c0.1,11.4 9.6,20.7 21,20.5 h242.7 c11.4,0.2 20.9,-9.1 21.1,-20.5 V20.500817871093773 C1123.5999996185303,9.100817871093739 1114.0999996185303,-0.09918212890625 1102.6999996185302,0.0008178710937727374 zM923.3999996185303,242.60081787109374 h-42.2 V106.80081787109373 h42.2 V242.60081787109374 zM926.7999996185303,63.70081787109376 c0,13.4 -11,24.5 -24.5,24.5 c0,0 0,0 0,0 c-13.4,0 -24.5,-11.1 -24.5,-24.5 s11,-24.5 24.5,-24.5 S926.7999996185303,50.30081787109373 926.7999996185303,63.70081787109376 C926.7999996185303,63.70081787109376 926.7999996185303,63.70081787109376 926.7999996185303,63.70081787109376 zM1081.5999996185303,242.60081787109374 h-42.2 v-66.1 c0,-15.8 -0.30000000000000004,-36 -21.9,-36 c-22,0 -25.3,17.2 -25.3,34.9 v67.2 h-42.2 V106.80081787109373 h40.5 v18.6 h0.6000000000000001 c8.2,-14.1 23.6,-22.6 40,-22 c42.8,0 50.7,28.1 50.7,64.7 L1081.5999996185303,242.60081787109374 z" id="svg_3"/></g></svg>