<svg xmlns="http://www.w3.org/2000/svg" xmlns:xlink="http://www.w3.org/1999/xlink" version="1.1" style="" xml:space="preserve" width="504" height="80"><rect id="backgroundrect" width="100%" height="100%" x="0" y="0" fill="none" stroke="none" class="" style=""/>
<style type="text/css">
	.st0{fill:#494948;}
	.st1{fill:url(#SVGID_1_);}
	.st2{fill:url(#SVGID_2_);}
	.st3{fill:url(#SVGID_3_);}
</style>


<g class="currentLayer" style=""><title>Layer 1</title><g id="svg_1" class="">
	<path class="st0" d="M108.05000152587891,70.52 c-0.8200000000000003,0.25 -1.77,0.48000000000000015 -2.84,0.7100000000000003 c-1.07,0.23 -2.19,0.42000000000000015 -3.36,0.5900000000000003 c-1.17,0.1600000000000001 -2.37,0.30000000000000016 -3.58,0.4 c-1.21,0.1 -2.38,0.15000000000000008 -3.49,0.15000000000000008 c-2.67,0 -5.06,-0.3900000000000002 -7.16,-1.17 s-3.87,-1.9 -5.3100000000000005,-3.36 c-1.44,-1.46 -2.54,-3.23 -3.3,-5.3100000000000005 c-0.7600000000000003,-2.08 -1.1400000000000001,-4.41 -1.1400000000000001,-7 c0,-2.63 0.3300000000000002,-5.01 0.99,-7.12 c0.6600000000000005,-2.12 1.6,-3.92 2.84,-5.4 s2.75,-2.6100000000000003 4.53,-3.39 c1.79,-0.78 3.83,-1.17 6.14,-1.17 c1.27,0 2.42,0.12000000000000002 3.42,0.37000000000000016 c1.01,0.25 2.03,0.6000000000000003 3.05,1.05 V25.179999999999993 l9.19,-1.48 v46.82 H108.05000152587891 zM87.2600015258789,55.099999999999994 c0,2.84 0.6400000000000003,5.12 1.9100000000000001,6.85 c1.27,1.73 3.17,2.59 5.68,2.59 c0.8200000000000003,0 1.58,-0.03000000000000002 2.2800000000000002,-0.09000000000000007 s1.27,-0.13 1.73,-0.22000000000000008 V47.510000000000005 c-0.5800000000000003,-0.37000000000000016 -1.33,-0.6800000000000006 -2.25,-0.92 c-0.93,-0.25 -1.86,-0.37000000000000016 -2.81,-0.37000000000000016 C89.44000152587891,46.22 87.2600015258789,49.17999999999999 87.2600015258789,55.099999999999994 z" id="svg_2"/>
	<path class="st0" d="M128.3400015258789,38.260000000000005 c2.71,0 4.98,0.31000000000000016 6.79,0.93 s3.26,1.5 4.35,2.6500000000000004 c1.09,1.15 1.86,2.55 2.31,4.2 c0.45,1.6500000000000006 0.6800000000000006,3.48 0.6800000000000006,5.49 v19.12 c-1.32,0.29000000000000015 -3.15,0.6300000000000003 -5.49,1.02 s-5.18,0.5900000000000003 -8.51,0.5900000000000003 c-2.1,0 -4,-0.19000000000000009 -5.71,-0.56 c-1.71,-0.37000000000000016 -3.18,-0.98 -4.41,-1.82 s-2.18,-1.94 -2.84,-3.3 s-0.99,-3.02 -0.99,-5 c0,-1.8900000000000001 0.38000000000000017,-3.5 1.1400000000000001,-4.8100000000000005 c0.7600000000000003,-1.32 1.78,-2.36 3.05,-3.15 c1.27,-0.78 2.73,-1.35 4.38,-1.7000000000000002 c1.6400000000000001,-0.35000000000000014 3.35,-0.52 5.12,-0.52 c1.19,0 2.25,0.05000000000000003 3.18,0.15000000000000008 s1.6800000000000006,0.24000000000000007 2.25,0.4 v-0.8600000000000003 c0,-1.56 -0.47000000000000014,-2.8200000000000003 -1.42,-3.7600000000000002 c-0.9500000000000003,-0.9500000000000003 -2.59,-1.42 -4.94,-1.42 c-1.56,0 -3.11,0.11000000000000004 -4.63,0.3400000000000003 c-1.52,0.23 -2.84,0.55 -3.95,0.9600000000000003 l-1.17,-7.4 c0.53,-0.1600000000000001 1.2,-0.3400000000000003 2,-0.52 c0.8,-0.19000000000000009 1.6800000000000006,-0.35000000000000014 2.62,-0.49000000000000016 c0.9500000000000003,-0.14 1.94,-0.27 2.99,-0.37000000000000016 C126.21000152587891,38.31 127.27000152587891,38.260000000000005 128.3400015258789,38.260000000000005 zM129.0800015258789,65.15 c0.9,0 1.77,-0.02000000000000001 2.59,-0.06000000000000003 c0.8200000000000003,-0.04000000000000002 1.48,-0.1 1.97,-0.19000000000000009 v-6.97 c-0.37000000000000016,-0.08000000000000004 -0.93,-0.1600000000000001 -1.6700000000000006,-0.25 c-0.7400000000000003,-0.08000000000000004 -1.42,-0.12000000000000002 -2.04,-0.12000000000000002 c-0.8600000000000003,0 -1.6800000000000006,0.05000000000000003 -2.44,0.15000000000000008 c-0.7600000000000003,0.1 -1.4300000000000002,0.30000000000000016 -2,0.5900000000000003 c-0.5800000000000003,0.29000000000000015 -1.03,0.6800000000000006 -1.36,1.17 s-0.49000000000000016,1.11 -0.49000000000000016,1.85 c0,1.44 0.48000000000000015,2.44 1.45,2.99 C126.0700015258789,64.88 127.4000015258789,65.15 129.0800015258789,65.15 z" id="svg_3"/>
	<path class="st0" d="M150.4900015258789,31.039999999999992 l9.19,-1.48 v9.56 h11.04 v7.65 h-11.04 v11.41 c0,1.9300000000000002 0.3400000000000003,3.48 1.02,4.63 s2.05,1.73 4.1,1.73 c0.99,0 2,-0.09000000000000007 3.05,-0.28 c1.05,-0.18000000000000008 2,-0.44000000000000017 2.87,-0.77 l1.3,7.16 c-1.11,0.45 -2.34,0.8400000000000003 -3.7,1.17 s-3.02,0.49000000000000016 -5,0.49000000000000016 c-2.51,0 -4.59,-0.3400000000000003 -6.23,-1.02 c-1.6500000000000006,-0.6800000000000006 -2.96,-1.62 -3.95,-2.84 c-0.99,-1.21 -1.6800000000000006,-2.68 -2.07,-4.41 c-0.3900000000000002,-1.73 -0.5900000000000003,-3.64 -0.5900000000000003,-5.74 L150.4900015258789,31.039999999999992 L150.4900015258789,31.039999999999992 z" id="svg_4"/>
	<path class="st0" d="M188.6100015258789,38.260000000000005 c2.71,0 4.98,0.31000000000000016 6.79,0.93 s3.26,1.5 4.35,2.6500000000000004 c1.09,1.15 1.86,2.55 2.31,4.2 c0.45,1.6500000000000006 0.6800000000000006,3.48 0.6800000000000006,5.49 v19.12 c-1.32,0.29000000000000015 -3.15,0.6300000000000003 -5.49,1.02 s-5.18,0.5900000000000003 -8.51,0.5900000000000003 c-2.1,0 -4,-0.19000000000000009 -5.71,-0.56 c-1.71,-0.37000000000000016 -3.18,-0.98 -4.41,-1.82 s-2.18,-1.94 -2.84,-3.3 s-0.99,-3.02 -0.99,-5 c0,-1.8900000000000001 0.38000000000000017,-3.5 1.1400000000000001,-4.8100000000000005 c0.7600000000000003,-1.32 1.78,-2.36 3.05,-3.15 c1.27,-0.78 2.73,-1.35 4.38,-1.7000000000000002 c1.6400000000000001,-0.35000000000000014 3.35,-0.52 5.12,-0.52 c1.19,0 2.25,0.05000000000000003 3.18,0.15000000000000008 s1.6800000000000006,0.24000000000000007 2.25,0.4 v-0.8600000000000003 c0,-1.56 -0.47000000000000014,-2.8200000000000003 -1.42,-3.7600000000000002 c-0.9500000000000003,-0.9500000000000003 -2.59,-1.42 -4.94,-1.42 c-1.56,0 -3.11,0.11000000000000004 -4.63,0.3400000000000003 c-1.52,0.23 -2.84,0.55 -3.95,0.9600000000000003 l-1.17,-7.4 c0.53,-0.1600000000000001 1.2,-0.3400000000000003 2,-0.52 c0.8,-0.19000000000000009 1.6800000000000006,-0.35000000000000014 2.62,-0.49000000000000016 c0.9500000000000003,-0.14 1.94,-0.27 2.99,-0.37000000000000016 C186.48000152587892,38.31 187.5400015258789,38.260000000000005 188.6100015258789,38.260000000000005 zM189.3500015258789,65.15 c0.9,0 1.77,-0.02000000000000001 2.59,-0.06000000000000003 c0.8200000000000003,-0.04000000000000002 1.48,-0.1 1.97,-0.19000000000000009 v-6.97 c-0.37000000000000016,-0.08000000000000004 -0.93,-0.1600000000000001 -1.6700000000000006,-0.25 c-0.7400000000000003,-0.08000000000000004 -1.42,-0.12000000000000002 -2.04,-0.12000000000000002 c-0.8600000000000003,0 -1.6800000000000006,0.05000000000000003 -2.44,0.15000000000000008 c-0.7600000000000003,0.1 -1.4300000000000002,0.30000000000000016 -2,0.5900000000000003 c-0.5800000000000003,0.29000000000000015 -1.03,0.6800000000000006 -1.36,1.17 s-0.49000000000000016,1.11 -0.49000000000000016,1.85 c0,1.44 0.48000000000000015,2.44 1.45,2.99 C186.3400015258789,64.88 187.67000152587892,65.15 189.3500015258789,65.15 z" id="svg_5"/>
	<path class="st0" d="M223.7800015258789,23.700000000000003 c1.73,0 3.14,0.13 4.23,0.4 c1.09,0.27 1.8,0.5 2.13,0.7100000000000003 l-0.8,3.46 c-0.45,-0.21000000000000008 -1.12,-0.42000000000000015 -2,-0.6500000000000004 s-2,-0.3400000000000003 -3.36,-0.3400000000000003 c-2.84,0 -4.86,0.7200000000000003 -6.08,2.16 c-1.21,1.44 -1.82,3.74 -1.82,6.91 v3.33 h12.83 v3.39 h-12.83 v28.5 h-4.01 V36.22 c0,-4.15 0.9600000000000003,-7.28 2.87,-9.38 C216.8400015258789,24.75 219.7900015258789,23.700000000000003 223.7800015258789,23.700000000000003 z" id="svg_6"/>
	<path class="st0" d="M244.94000152587893,38.92999999999999 c2.1,0 3.88,0.30000000000000016 5.34,0.8900000000000003 c1.46,0.6000000000000003 2.64,1.42 3.55,2.47 c0.9,1.05 1.56,2.29 1.97,3.73 s0.6200000000000003,3 0.6200000000000003,4.69 v20.11 c-0.41000000000000014,0.12000000000000002 -1.01,0.26 -1.79,0.4 s-1.6900000000000006,0.30000000000000016 -2.71,0.46 c-1.03,0.1600000000000001 -2.17,0.30000000000000016 -3.42,0.4 s-2.54,0.15000000000000008 -3.8600000000000003,0.15000000000000008 c-1.6900000000000006,0 -3.24,-0.19000000000000009 -4.66,-0.56 s-2.6500000000000004,-0.9600000000000003 -3.7,-1.7600000000000002 s-1.87,-1.83 -2.47,-3.08 s-0.8900000000000003,-2.79 -0.8900000000000003,-4.6 c0,-1.73 0.3300000000000002,-3.21 0.99,-4.44 s1.58,-2.25 2.7800000000000002,-3.05 c1.19,-0.8 2.6100000000000003,-1.3900000000000001 4.26,-1.7600000000000002 c1.6400000000000001,-0.37000000000000016 3.43,-0.55 5.37,-0.55 c0.5800000000000003,0 1.18,0.03000000000000002 1.82,0.09000000000000007 s1.25,0.14 1.85,0.25 c0.6000000000000003,0.1 1.11,0.21000000000000008 1.54,0.31000000000000016 c0.43000000000000016,0.1 0.7300000000000003,0.2 0.8900000000000003,0.28 v-1.97 c0,-1.11 -0.08000000000000004,-2.19 -0.25,-3.24 c-0.1600000000000001,-1.05 -0.52,-1.99 -1.08,-2.84 c-0.56,-0.8400000000000003 -1.34,-1.52 -2.34,-2.04 c-1.01,-0.51 -2.33,-0.77 -3.98,-0.77 c-2.34,0 -4.09,0.17 -5.24,0.49000000000000016 c-1.15,0.3300000000000002 -2,0.6000000000000003 -2.5300000000000002,0.8 l-0.56,-3.52 c0.7000000000000003,-0.3300000000000002 1.78,-0.6400000000000003 3.24,-0.92 C241.12000152587893,39.08 242.88000152587892,38.92999999999999 244.94000152587893,38.92999999999999 zM245.31000152587893,68.67 c1.56,0 2.93,-0.05000000000000003 4.1,-0.15000000000000008 s2.17,-0.24000000000000007 2.99,-0.4 v-11.23 c-0.45,-0.21000000000000008 -1.17,-0.42000000000000015 -2.16,-0.6500000000000004 s-2.34,-0.3400000000000003 -4.07,-0.3400000000000003 c-0.99,0 -2.02,0.07 -3.08,0.22000000000000008 c-1.07,0.14 -2.06,0.45 -2.96,0.92 c-0.91,0.47000000000000014 -1.6500000000000006,1.12 -2.22,1.94 c-0.5800000000000003,0.8200000000000003 -0.8600000000000003,1.9100000000000001 -0.8600000000000003,3.27 c0,1.19 0.19000000000000009,2.2 0.5900000000000003,3.02 c0.3900000000000002,0.8200000000000003 0.9500000000000003,1.48 1.6700000000000006,1.97 s1.58,0.8500000000000003 2.59,1.08 C242.89000152587892,68.56 244.0300015258789,68.67 245.31000152587893,68.67 z" id="svg_7"/>
	<path class="st0" d="M266.6500015258789,40.78999999999999 c1.19,-0.3300000000000002 2.8,-0.7000000000000003 4.8100000000000005,-1.11 s4.48,-0.6200000000000003 7.4,-0.6200000000000003 c2.43,0 4.45,0.35000000000000014 6.08,1.05 c1.62,0.7000000000000003 2.92,1.7000000000000002 3.89,2.99 c0.97,1.3 1.6600000000000001,2.85 2.07,4.66 s0.6200000000000003,3.8 0.6200000000000003,5.98 v17.83 h-4.01 V55.03999999999999 c0,-2.26 -0.15000000000000008,-4.17 -0.46,-5.74 c-0.31000000000000016,-1.56 -0.8200000000000003,-2.84 -1.54,-3.83 c-0.7200000000000003,-0.99 -1.6700000000000006,-1.7000000000000002 -2.84,-2.13 c-1.17,-0.43000000000000016 -2.64,-0.6500000000000004 -4.41,-0.6500000000000004 c-1.8900000000000001,0 -3.5300000000000002,0.1 -4.9,0.31000000000000016 c-1.3800000000000001,0.21000000000000008 -2.27,0.3900000000000002 -2.68,0.55 v28.01 h-4.01 V40.78999999999999 H266.6500015258789 z" id="svg_8"/>
	<path class="st0" d="M311.4400015258789,38.92999999999999 c2.1,0 3.88,0.30000000000000016 5.34,0.8900000000000003 c1.46,0.6000000000000003 2.64,1.42 3.55,2.47 s1.56,2.29 1.97,3.73 s0.6200000000000003,3 0.6200000000000003,4.69 v20.11 c-0.41000000000000014,0.12000000000000002 -1.01,0.26 -1.79,0.4 s-1.6900000000000006,0.30000000000000016 -2.71,0.46 c-1.03,0.1600000000000001 -2.17,0.30000000000000016 -3.42,0.4 s-2.54,0.15000000000000008 -3.8600000000000003,0.15000000000000008 c-1.6900000000000006,0 -3.24,-0.19000000000000009 -4.66,-0.56 s-2.6500000000000004,-0.9600000000000003 -3.7,-1.7600000000000002 s-1.87,-1.83 -2.47,-3.08 s-0.8900000000000003,-2.79 -0.8900000000000003,-4.6 c0,-1.73 0.3300000000000002,-3.21 0.99,-4.44 s1.58,-2.25 2.7800000000000002,-3.05 c1.19,-0.8 2.6100000000000003,-1.3900000000000001 4.26,-1.7600000000000002 c1.6400000000000001,-0.37000000000000016 3.43,-0.55 5.37,-0.55 c0.5800000000000003,0 1.18,0.03000000000000002 1.82,0.09000000000000007 s1.25,0.14 1.85,0.25 c0.6000000000000003,0.1 1.11,0.21000000000000008 1.54,0.31000000000000016 c0.43000000000000016,0.1 0.7300000000000003,0.2 0.8900000000000003,0.28 v-1.97 c0,-1.11 -0.08000000000000004,-2.19 -0.25,-3.24 c-0.17,-1.05 -0.52,-1.99 -1.08,-2.84 c-0.55,-0.8400000000000003 -1.34,-1.52 -2.34,-2.04 c-1.01,-0.51 -2.33,-0.77 -3.98,-0.77 c-2.34,0 -4.09,0.17 -5.24,0.49000000000000016 c-1.15,0.3300000000000002 -2,0.6000000000000003 -2.5300000000000002,0.8 l-0.56,-3.52 c0.7000000000000003,-0.3300000000000002 1.78,-0.6400000000000003 3.24,-0.92 C307.62000152587893,39.08 309.3800015258789,38.92999999999999 311.4400015258789,38.92999999999999 zM311.81000152587893,68.67 c1.56,0 2.93,-0.05000000000000003 4.1,-0.15000000000000008 s2.17,-0.24000000000000007 2.99,-0.4 v-11.23 c-0.45,-0.21000000000000008 -1.17,-0.42000000000000015 -2.16,-0.6500000000000004 s-2.34,-0.3400000000000003 -4.07,-0.3400000000000003 c-0.99,0 -2.02,0.07 -3.08,0.22000000000000008 c-1.07,0.14 -2.06,0.45 -2.96,0.92 c-0.91,0.47000000000000014 -1.6500000000000006,1.12 -2.22,1.94 c-0.5800000000000003,0.8200000000000003 -0.8600000000000003,1.9100000000000001 -0.8600000000000003,3.27 c0,1.19 0.19000000000000009,2.2 0.5900000000000003,3.02 c0.3900000000000002,0.8200000000000003 0.9500000000000003,1.48 1.6700000000000006,1.97 s1.58,0.8500000000000003 2.59,1.08 C309.3900015258789,68.56 310.5300015258789,68.67 311.81000152587893,68.67 z" id="svg_9"/>
	<path class="st0" d="M336.9100015258789,39.67999999999999 h12.71 v3.39 h-12.71 v16.96 c0,1.81 0.15000000000000008,3.2800000000000002 0.46,4.41 s0.7500000000000003,2 1.33,2.62 s1.27,1.03 2.1,1.23 c0.8200000000000003,0.21000000000000008 1.73,0.31000000000000016 2.71,0.31000000000000016 c1.6900000000000006,0 3.04,-0.2 4.07,-0.5900000000000003 s1.83,-0.7500000000000003 2.41,-1.08 l0.99,3.33 c-0.5800000000000003,0.37000000000000016 -1.58,0.79 -3.02,1.26 s-3,0.7100000000000003 -4.69,0.7100000000000003 c-1.97,0 -3.63,-0.26 -4.97,-0.77 c-1.34,-0.51 -2.41,-1.29 -3.21,-2.34 c-0.8,-1.05 -1.37,-2.35 -1.7000000000000002,-3.92 c-0.3300000000000002,-1.56 -0.49000000000000016,-3.41 -0.49000000000000016,-5.55 V30.299999999999997 l4.01,-0.7400000000000003 V39.67999999999999 z" id="svg_10"/>
	<path class="st0" d="M361.9600015258789,30.049999999999997 c0,0.9500000000000003 -0.29000000000000015,1.7000000000000002 -0.8600000000000003,2.25 c-0.5800000000000003,0.56 -1.28,0.8300000000000003 -2.1,0.8300000000000003 s-1.52,-0.28 -2.1,-0.8300000000000003 c-0.5800000000000003,-0.55 -0.8600000000000003,-1.3 -0.8600000000000003,-2.25 c0,-0.9500000000000003 0.29000000000000015,-1.7000000000000002 0.8600000000000003,-2.25 c0.5800000000000003,-0.56 1.27,-0.8300000000000003 2.1,-0.8300000000000003 c0.8200000000000003,0 1.52,0.28 2.1,0.8300000000000003 C361.6700015258789,28.349999999999994 361.9600015258789,29.11 361.9600015258789,30.049999999999997 zM361.0300015258789,71.57 h-4.01 V39.67999999999999 h4.01 V71.57 z" id="svg_11"/>
	<path class="st0" d="M384.8500015258789,72.25 c-2.47,0 -4.65,-0.3900000000000002 -6.54,-1.17 s-3.46,-1.9 -4.72,-3.36 c-1.25,-1.46 -2.21,-3.21 -2.87,-5.24 c-0.6600000000000005,-2.04 -0.99,-4.29 -0.99,-6.75 c0,-2.51 0.3400000000000003,-4.79 1.02,-6.85 s1.6600000000000001,-3.83 2.93,-5.3100000000000005 s2.8200000000000003,-2.62 4.63,-3.42 s3.85,-1.2 6.11,-1.2 c1.73,0 3.34,0.14 4.84,0.43000000000000016 s2.66,0.6600000000000005 3.49,1.11 l-1.05,3.45 c-0.8200000000000003,-0.41000000000000014 -1.75,-0.7400000000000003 -2.7800000000000002,-0.99 s-2.41,-0.37000000000000016 -4.13,-0.37000000000000016 c-3.54,0 -6.22,1.1400000000000001 -8.05,3.42 s-2.75,5.52 -2.75,9.72 c0,1.8900000000000001 0.21000000000000008,3.63 0.6200000000000003,5.21 s1.08,2.94 2,4.07 c0.93,1.13 2.12,2.02 3.58,2.6500000000000004 c1.46,0.6400000000000003 3.24,0.9600000000000003 5.34,0.9600000000000003 c1.73,0 3.18,-0.2 4.35,-0.5900000000000003 s2.03,-0.7300000000000003 2.56,-1.02 l0.8600000000000003,3.46 c-0.7400000000000003,0.41000000000000014 -1.9,0.81 -3.49,1.2 C388.2300015258789,72.05 386.5700015258789,72.25 384.8500015258789,72.25 z" id="svg_12"/>
	<path class="st0" d="M406.56000152587893,68.73 c2.3,0 4.2,-0.38000000000000017 5.71,-1.1400000000000001 c1.5,-0.7600000000000003 2.25,-2.04 2.25,-3.8600000000000003 c0,-0.8600000000000003 -0.13,-1.6 -0.4,-2.22 s-0.7100000000000003,-1.17 -1.33,-1.6700000000000006 c-0.6200000000000003,-0.49000000000000016 -1.4300000000000002,-0.97 -2.44,-1.42 s-2.25,-0.99 -3.73,-1.6 c-1.19,-0.49000000000000016 -2.3200000000000003,-1 -3.39,-1.51 s-2.02,-1.11 -2.84,-1.79 s-1.48,-1.49 -1.97,-2.44 c-0.49000000000000016,-0.9500000000000003 -0.7400000000000003,-2.1 -0.7400000000000003,-3.46 c0,-2.59 0.98,-4.69 2.93,-6.29 c1.9500000000000002,-1.6 4.6400000000000015,-2.41 8.05,-2.41 c2.18,0 3.98,0.19000000000000009 5.4,0.56 s2.42,0.7000000000000003 2.99,0.99 l-0.93,3.58 c-0.49000000000000016,-0.25 -1.33,-0.5800000000000003 -2.5,-0.99 s-2.89,-0.6200000000000003 -5.15,-0.6200000000000003 c-0.91,0 -1.7600000000000002,0.09000000000000007 -2.56,0.28 s-1.51,0.47000000000000014 -2.13,0.8700000000000003 c-0.6200000000000003,0.3900000000000002 -1.11,0.8900000000000003 -1.48,1.48 s-0.55,1.33 -0.55,2.19 c0,0.8700000000000003 0.1600000000000001,1.61 0.49000000000000016,2.23 s0.81,1.17 1.45,1.6400000000000001 s1.42,0.92 2.34,1.33 s1.98,0.8600000000000003 3.18,1.35 c1.23,0.49000000000000016 2.42,0.99 3.55,1.5 c1.13,0.51 2.13,1.13 2.99,1.85 s1.56,1.58 2.1,2.59 c0.53,1.01 0.8,2.27 0.8,3.79 c0,2.88 -1.08,5.06 -3.24,6.54 s-5.11,2.22 -8.85,2.22 c-2.8,0 -4.94,-0.24000000000000007 -6.42,-0.7100000000000003 s-2.47,-0.8300000000000003 -2.96,-1.08 l1.05,-3.64 c0.12000000000000002,0.08000000000000004 0.3900000000000002,0.22000000000000008 0.8,0.4 c0.41000000000000014,0.18000000000000008 0.97,0.3900000000000002 1.6700000000000006,0.6200000000000003 s1.53,0.42000000000000015 2.5,0.5900000000000003 C404.1700015258789,68.65 405.2900015258789,68.73 406.56000152587893,68.73 z" id="svg_13"/>
	<path class="st0" d="M432.1000015258789,68.92 c0,0.9500000000000003 -0.30000000000000016,1.75 -0.8900000000000003,2.41 c-0.6000000000000003,0.6600000000000005 -1.4300000000000002,0.99 -2.5,0.99 s-1.9,-0.3300000000000002 -2.5,-0.99 c-0.6000000000000003,-0.6600000000000005 -0.8900000000000003,-1.46 -0.8900000000000003,-2.41 s0.30000000000000016,-1.75 0.8900000000000003,-2.41 c0.6000000000000003,-0.6600000000000005 1.4300000000000002,-0.99 2.5,-0.99 s1.9,0.3300000000000002 2.5,0.99 C431.8000015258789,67.17 432.1000015258789,67.97 432.1000015258789,68.92 z" id="svg_14"/>
	<path class="st0" d="M441.6000015258789,40.78999999999999 c1.19,-0.3300000000000002 2.8,-0.7000000000000003 4.8100000000000005,-1.11 s4.48,-0.6200000000000003 7.4,-0.6200000000000003 c2.43,0 4.45,0.35000000000000014 6.08,1.05 c1.62,0.7000000000000003 2.92,1.7000000000000002 3.89,2.99 c0.97,1.3 1.6600000000000001,2.85 2.07,4.66 s0.6200000000000003,3.8 0.6200000000000003,5.98 v17.83 h-4.01 V55.03999999999999 c0,-2.26 -0.15000000000000008,-4.17 -0.46,-5.74 c-0.31000000000000016,-1.56 -0.8200000000000003,-2.84 -1.54,-3.83 c-0.7200000000000003,-0.99 -1.6700000000000006,-1.7000000000000002 -2.84,-2.13 c-1.17,-0.43000000000000016 -2.64,-0.6500000000000004 -4.41,-0.6500000000000004 c-1.8900000000000001,0 -3.5300000000000002,0.1 -4.9,0.31000000000000016 c-1.3800000000000001,0.21000000000000008 -2.27,0.3900000000000002 -2.68,0.55 v28.01 h-4.01 V40.78999999999999 H441.6000015258789 z" id="svg_15"/>
	<path class="st0" d="M484.7800015258789,72.13 c-1.36,-0.04000000000000002 -2.54,-0.22000000000000008 -3.55,-0.52 c-1.01,-0.31000000000000016 -1.85,-0.78 -2.5300000000000002,-1.42 s-1.19,-1.46 -1.54,-2.47 s-0.52,-2.27 -0.52,-3.79 V24.439999999999998 l4.01,-0.7400000000000003 v40.1 c0,0.99 0.09000000000000007,1.78 0.28,2.38 s0.46,1.07 0.8300000000000003,1.42 s0.8500000000000003,0.6100000000000003 1.45,0.77 c0.6000000000000003,0.17 1.31,0.31000000000000016 2.13,0.43000000000000016 L484.7800015258789,72.13 z" id="svg_16"/>
	<path class="st0" d="M503.59000152587896,64.63 c0,1.15 -0.19000000000000009,2.17 -0.56,3.06 s-0.8700000000000003,1.6500000000000006 -1.49,2.27 s-1.34,1.09 -2.16,1.42 c-0.8200000000000003,0.3300000000000002 -1.6800000000000006,0.49000000000000016 -2.5700000000000003,0.49000000000000016 s-1.75,-0.1600000000000001 -2.5700000000000003,-0.49000000000000016 c-0.8200000000000003,-0.3300000000000002 -1.54,-0.8 -2.16,-1.42 s-1.12,-1.3800000000000001 -1.49,-2.27 s-0.56,-1.9100000000000001 -0.56,-3.06 c0,-1.13 0.19000000000000009,-2.15 0.56,-3.05 s0.8700000000000003,-1.6600000000000001 1.49,-2.27 s1.34,-1.08 2.16,-1.4100000000000001 c0.8200000000000003,-0.3300000000000002 1.6800000000000006,-0.49000000000000016 2.5700000000000003,-0.49000000000000016 s1.75,0.1600000000000001 2.5700000000000003,0.49000000000000016 c0.8200000000000003,0.3300000000000002 1.54,0.8 2.16,1.4100000000000001 s1.12,1.37 1.49,2.27 C503.4000015258789,62.480000000000004 503.59000152587896,63.5 503.59000152587896,64.63 zM502.4100015258789,64.63 c0,-0.92 -0.14,-1.7600000000000002 -0.42000000000000015,-2.52 c-0.28,-0.7600000000000003 -0.6700000000000006,-1.4100000000000001 -1.1600000000000001,-1.9500000000000002 c-0.49000000000000016,-0.54 -1.08,-0.9600000000000003 -1.77,-1.25 s-1.44,-0.44000000000000017 -2.25,-0.44000000000000017 s-1.56,0.15000000000000008 -2.25,0.44000000000000017 s-1.28,0.7100000000000003 -1.77,1.25 s-0.8800000000000003,1.19 -1.1600000000000001,1.9500000000000002 s-0.42000000000000015,1.6 -0.42000000000000015,2.52 s0.14,1.7600000000000002 0.42000000000000015,2.52 s0.6700000000000006,1.4100000000000001 1.1600000000000001,1.9500000000000002 c0.49000000000000016,0.54 1.08,0.9600000000000003 1.77,1.26 s1.44,0.45 2.25,0.45 s1.56,-0.15000000000000008 2.25,-0.45 s1.28,-0.7200000000000003 1.77,-1.26 s0.8800000000000003,-1.19 1.1600000000000001,-1.9500000000000002 S502.4100015258789,65.55 502.4100015258789,64.63 zM498.97000152587896,68.59 c-0.35000000000000014,-0.6300000000000003 -0.7100000000000003,-1.22 -1.08,-1.79 s-0.7000000000000003,-1.02 -0.98,-1.35 c-0.09000000000000007,0.010000000000000005 -0.18000000000000008,0.02000000000000001 -0.26,0.02000000000000001 s-0.15000000000000008,0 -0.22000000000000008,0 h-1.26 v3.12 h-1.1 v-7.74 c0.31000000000000016,-0.07 0.6500000000000004,-0.12000000000000002 1.03,-0.1600000000000001 s0.7400000000000003,-0.06000000000000003 1.07,-0.06000000000000003 c1.13,0 2,0.21000000000000008 2.59,0.6200000000000003 s0.8900000000000003,1.04 0.8900000000000003,1.8800000000000003 c0,0.48000000000000015 -0.13,0.91 -0.4,1.29 s-0.6600000000000005,0.6600000000000005 -1.18,0.8500000000000003 c0.11000000000000004,0.12000000000000002 0.25,0.30000000000000016 0.43000000000000016,0.55 s0.37000000000000016,0.52 0.5700000000000003,0.8300000000000003 c0.2,0.31000000000000016 0.4,0.6300000000000003 0.6000000000000003,0.98 c0.2,0.35000000000000014 0.37000000000000016,0.6700000000000006 0.52,0.9600000000000003 C500.19000152587887,68.59 498.97000152587896,68.59 498.97000152587896,68.59 zM495.1700015258789,64.57 h1 c0.3300000000000002,0 0.6400000000000003,-0.02000000000000001 0.92,-0.06000000000000003 s0.52,-0.12000000000000002 0.7300000000000003,-0.23 c0.21000000000000008,-0.11000000000000004 0.37000000000000016,-0.26 0.48000000000000015,-0.45 c0.11000000000000004,-0.19000000000000009 0.17,-0.43000000000000016 0.17,-0.7200000000000003 c0,-0.28 -0.06000000000000003,-0.52 -0.19000000000000009,-0.7100000000000003 s-0.29000000000000015,-0.35000000000000014 -0.5,-0.47000000000000014 s-0.44000000000000017,-0.21000000000000008 -0.7100000000000003,-0.26 s-0.55,-0.08000000000000004 -0.8400000000000003,-0.08000000000000004 c-0.2,0 -0.3900000000000002,0 -0.5700000000000003,0.010000000000000005 s-0.3400000000000003,0.02000000000000001 -0.49000000000000016,0.03000000000000002 L495.1700015258789,64.57 L495.1700015258789,64.57 z" id="svg_17"/>
</g><g id="svg_18" class="">
	
		<linearGradient id="SVGID_1_" gradientUnits="userSpaceOnUse" x1="49.50849914550781" y1="37.61320114135742" x2="89.50859832763672" y2="99.61319732666016" gradientTransform="matrix(1 0 0 -1 0 172)" transform="translate(-0.0000019073486328125,8.526512829121202e-14) translate(-0.0000019073486328125,-0.0000012207032114019967) translate(-29.599994659423828,-44.529998779296875) ">
		<stop offset="0.0331" style="stop-color:#FED475"/>
		<stop offset="0.3054" style="stop-color:#ED6F69"/>
		<stop offset="0.5054" style="stop-color:#E5004F"/>
		<stop offset="0.7335" style="stop-color:#8262A7"/>
		<stop offset="0.7667" style="stop-color:#7F65AA"/>
		<stop offset="0.8088" style="stop-color:#736EB1"/>
		<stop offset="0.8557" style="stop-color:#5C7BBD"/>
		<stop offset="0.9061" style="stop-color:#1D8ACB"/>
		<stop offset="0.9588" style="stop-color:#0097D9"/>
		<stop offset="1" style="stop-color:#009EE3"/>
	</linearGradient>
	<path class="st1" d="M71.2200015258789,15.519999999999996 V6.352747104407253e-22 c-4.6,0.010000000000000005 -8.8,0.8400000000000003 -12.51,2.37 c-0.02000000000000001,0.010000000000000005 -0.05000000000000003,0.02000000000000001 -0.07,0.03000000000000002 v45.54 v0.010000000000000005 c1.48,-5.18 5.74,-8.51 11.5,-8.53 v-14.9 c-4.14,0.010000000000000005 -7.94,0.7400000000000003 -11.34,2.04 C59.69000152587891,19.950000000000003 64.46000152587891,15.54 71.2200015258789,15.519999999999996 z" id="svg_19"/>
	
		<linearGradient id="SVGID_2_" gradientUnits="userSpaceOnUse" x1="34.469200134277344" y1="47.31589889526367" x2="74.46929931640625" y2="109.31600189208984" gradientTransform="matrix(1 0 0 -1 0 172)" transform="translate(-0.0000019073486328125,8.526512829121202e-14) translate(-0.0000019073486328125,-0.0000012207032114019967) translate(-29.599994659423828,-44.529998779296875) ">
		<stop offset="0.0331" style="stop-color:#FED475"/>
		<stop offset="0.3054" style="stop-color:#ED6F69"/>
		<stop offset="0.5054" style="stop-color:#E5004F"/>
		<stop offset="0.7335" style="stop-color:#8262A7"/>
		<stop offset="0.7667" style="stop-color:#7F65AA"/>
		<stop offset="0.8088" style="stop-color:#736EB1"/>
		<stop offset="0.8557" style="stop-color:#5C7BBD"/>
		<stop offset="0.9061" style="stop-color:#1D8ACB"/>
		<stop offset="0.9588" style="stop-color:#0097D9"/>
		<stop offset="1" style="stop-color:#009EE3"/>
	</linearGradient>
	<path class="st2" d="M41.91000152587891,29.489999999999995 c-3.1,-4.32 -8.65,-7.1 -15.63,-7.1 c-11.64,0 -26.28,8.54 -26.28,28.83 c0,16.63 12.2,28.82 29.49,28.82 c1.98,0 3.88,-0.1600000000000001 5.71,-0.46 v-16.28 c-1.6700000000000006,0.79 -3.59,1.23 -5.71,1.23 c-7.54,0 -12.64,-5.43 -12.64,-13.3 s5.1,-13.3 12.64,-13.3 c6.52,0 11.34,4.37 12.51,10.59 V29.650000000000006 L41.91000152587891,29.489999999999995 z" id="svg_20"/>
	<linearGradient id="SVGID_3_" gradientUnits="userSpaceOnUse" x1="70.68949890136719" y1="122.98269653320312" x2="89.6802978515625" y2="44.37730026245117" transform="translate(-0.0000019073486328125,8.526512829121202e-14) translate(-0.0000019073486328125,-0.0000012207032114019967) translate(-29.599994659423828,-44.529998779296875) ">
		<stop offset="0.036" style="stop-color:#9F4949"/>
		<stop offset="0.2365" style="stop-color:#9D0539"/>
		<stop offset="0.549" style="stop-color:#504A76"/>
		<stop offset="0.9344" style="stop-color:#0D6D99"/>
	</linearGradient>
	<path class="st3" d="M48.02000152587891,10.399999999999999 c-3.5,4.49 -5.69,10.3 -6.02,17.13 v0.010000000000000005 v2.11 v18.87 v1.22 v28.04 c0,0 0,0.010000000000000005 0,0.010000000000000005 c2.4,-0.99 4.59,-2.27 6.53,-3.83 c2.99,-2.39 5.51,-5.72 7.29,-9.45 c1.78,-3.74 2.8200000000000003,-7.88 2.8200000000000003,-11.9 v-4.66 v-0.010000000000000005 V2.3999999999999986 v-0.010000000000000005 C54.370001525878905,4.159999999999997 50.760001525878906,6.879999999999996 48.02000152587891,10.399999999999999 z" id="svg_21"/>
</g></g></svg>