<svg width="189" height="30" viewBox="0 0 189 30" fill="none" xmlns="http://www.w3.org/2000/svg">
<path d="M40.5036 26.4314C40.1962 26.5251 39.8401 26.6113 39.439 26.6975C39.0379 26.7837 38.618 26.8549 38.1794 26.9187C37.7409 26.9786 37.291 27.0311 36.8374 27.0686C36.3839 27.1061 35.9453 27.1248 35.5292 27.1248C34.5283 27.1248 33.6324 26.9786 32.8452 26.6863C32.058 26.3939 31.3945 25.974 30.8547 25.4267C30.3149 24.8794 29.9025 24.2159 29.6176 23.4362C29.3328 22.6565 29.1903 21.7831 29.1903 20.8122C29.1903 19.8263 29.314 18.9342 29.5614 18.1432C29.8088 17.3485 30.1612 16.6738 30.626 16.119C31.0908 15.5642 31.6569 15.1406 32.3241 14.8482C32.9951 14.5558 33.7598 14.4096 34.6258 14.4096C35.1018 14.4096 35.5329 14.4546 35.9078 14.5483C36.2864 14.642 36.6688 14.7732 37.0511 14.9419V9.43522L40.4961 8.88043V26.4314H40.5036ZM32.7102 20.651C32.7102 21.7156 32.9501 22.5703 33.4262 23.2188C33.9023 23.8673 34.6145 24.1897 35.5554 24.1897C35.8628 24.1897 36.1477 24.1784 36.4101 24.156C36.6725 24.1335 36.8862 24.1072 37.0586 24.0735V17.8058C36.8412 17.6671 36.56 17.5509 36.2152 17.461C35.8666 17.3672 35.5179 17.3223 35.1618 17.3223C33.5274 17.3223 32.7102 18.4319 32.7102 20.651Z" fill="#8C969B"/>
<path d="M48.1095 14.3384C49.1254 14.3384 49.9763 14.4546 50.6548 14.687C51.3333 14.9194 51.8769 15.2493 52.2854 15.6804C52.694 16.1115 52.9827 16.6363 53.1514 17.2548C53.3201 17.8733 53.4063 18.5593 53.4063 19.3128V26.4801C52.9115 26.5888 52.2255 26.7162 51.3483 26.8624C50.4711 27.0086 49.4065 27.0836 48.1582 27.0836C47.371 27.0836 46.6588 27.0124 46.0178 26.8737C45.3768 26.735 44.8257 26.5063 44.3647 26.1914C43.9036 25.8766 43.5475 25.4642 43.3001 24.9544C43.0527 24.4446 42.929 23.8223 42.929 23.0801C42.929 22.3716 43.0714 21.7681 43.3563 21.277C43.6412 20.7822 44.0235 20.3924 44.4996 20.0962C44.9757 19.8038 45.523 19.5902 46.1415 19.459C46.7563 19.3278 47.3973 19.264 48.0608 19.264C48.5069 19.264 48.9042 19.2828 49.2528 19.3203C49.6015 19.3577 49.8826 19.4102 50.0963 19.4702V19.1478C50.0963 18.563 49.9201 18.0907 49.564 17.7384C49.2079 17.3822 48.5931 17.2061 47.7122 17.2061C47.1274 17.2061 46.5464 17.2473 45.9766 17.3335C45.4068 17.4197 44.912 17.5397 44.4959 17.6934L44.0573 14.9194C44.256 14.8594 44.5071 14.792 44.807 14.7245C45.1069 14.6533 45.4368 14.5933 45.7891 14.5408C46.1453 14.4883 46.5164 14.4396 46.91 14.4021C47.3111 14.3571 47.7084 14.3384 48.1095 14.3384ZM48.3869 24.4183C48.7243 24.4183 49.0504 24.4109 49.3578 24.3959C49.6652 24.3809 49.9126 24.3584 50.0963 24.3246V21.7119C49.9576 21.6819 49.7477 21.6519 49.4703 21.6182C49.1929 21.5882 48.938 21.5732 48.7055 21.5732C48.3832 21.5732 48.0758 21.5919 47.7909 21.6294C47.506 21.6669 47.2548 21.7419 47.0412 21.8506C46.8237 21.9593 46.6551 22.1055 46.5314 22.2892C46.4077 22.4728 46.3477 22.7052 46.3477 22.9826C46.3477 23.5224 46.5276 23.8973 46.8912 24.1035C47.2586 24.3171 47.7571 24.4183 48.3869 24.4183Z" fill="#8C969B"/>
<path d="M56.4126 11.6319L59.8575 11.0771V14.6608H63.996V17.5284H59.8575V21.8056C59.8575 22.5291 59.985 23.1101 60.2399 23.5412C60.4948 23.9723 61.0083 24.1897 61.7768 24.1897C62.1479 24.1897 62.5265 24.156 62.9201 24.0847C63.3137 24.0173 63.6698 23.9198 63.996 23.7961L64.4833 26.4801C64.0672 26.6488 63.6061 26.795 63.0963 26.9187C62.5865 27.0424 61.9642 27.1024 61.222 27.1024C60.2811 27.1024 59.5014 26.9749 58.8866 26.72C58.2681 26.4651 57.7771 26.1127 57.4059 25.6554C57.0348 25.2018 56.7762 24.6508 56.63 24.0023C56.4838 23.3538 56.4088 22.6378 56.4088 21.8506L56.4126 11.6319Z" fill="#8C969B"/>
<path d="M70.7023 14.3384C71.7182 14.3384 72.5691 14.4546 73.2476 14.687C73.9261 14.9194 74.4696 15.2493 74.8782 15.6804C75.2868 16.1115 75.5755 16.6363 75.7441 17.2548C75.9128 17.8733 75.999 18.5593 75.999 19.3128V26.4801C75.5042 26.5888 74.8182 26.7162 73.9411 26.8624C73.0639 27.0086 71.9993 27.0836 70.751 27.0836C69.9638 27.0836 69.2516 27.0124 68.6106 26.8737C67.9696 26.735 67.4185 26.5063 66.9574 26.1914C66.4964 25.8766 66.1402 25.4642 65.8928 24.9544C65.6454 24.4446 65.5217 23.8223 65.5217 23.0801C65.5217 22.3716 65.6642 21.7681 65.9491 21.277C66.234 20.7822 66.6163 20.3924 67.0924 20.0962C67.5685 19.8038 68.1158 19.5902 68.7343 19.459C69.349 19.3278 69.9901 19.264 70.6536 19.264C71.0996 19.264 71.497 19.2828 71.8456 19.3203C72.1942 19.3577 72.4754 19.4102 72.689 19.4702V19.1478C72.689 18.563 72.5129 18.0907 72.1567 17.7384C71.8006 17.3822 71.1859 17.2061 70.3049 17.2061C69.7202 17.2061 69.1391 17.2473 68.5693 17.3335C67.9996 17.4197 67.5047 17.5397 67.0886 17.6934L66.6501 14.9194C66.8487 14.8594 67.0999 14.792 67.3998 14.7245C67.6997 14.6533 68.0295 14.5933 68.3819 14.5408C68.738 14.4883 69.1091 14.4396 69.5027 14.4021C69.9038 14.3571 70.3012 14.3384 70.7023 14.3384ZM70.9797 24.4183C71.3171 24.4183 71.6432 24.4109 71.9506 24.3959C72.2579 24.3809 72.5054 24.3584 72.689 24.3246V21.7119C72.5503 21.6819 72.3404 21.6519 72.063 21.6182C71.7856 21.5882 71.5307 21.5732 71.2983 21.5732C70.9759 21.5732 70.6685 21.5919 70.3837 21.6294C70.0988 21.6669 69.8476 21.7419 69.6339 21.8506C69.4165 21.9593 69.2478 22.1055 69.1241 22.2892C69.0004 22.4728 68.9404 22.7052 68.9404 22.9826C68.9404 23.5224 69.1204 23.8973 69.484 24.1035C69.8514 24.3171 70.3499 24.4183 70.9797 24.4183Z" fill="#8C969B"/>
<path d="M83.8861 8.88043C84.5346 8.88043 85.0631 8.92916 85.4717 9.03038C85.8803 9.13159 86.1465 9.21781 86.2702 9.29653L85.9703 10.5935C85.8016 10.5148 85.5504 10.4361 85.2206 10.3499C84.8907 10.2637 84.4708 10.2224 83.961 10.2224C82.8964 10.2224 82.1392 10.4923 81.6819 11.0321C81.2283 11.5719 80.9996 12.4341 80.9996 13.6224V14.8707H85.8091V16.1415H80.9996V26.825H79.4965V13.5737C79.4965 12.018 79.8563 10.8447 80.5723 10.0575C81.2845 9.27403 82.3904 8.88043 83.8861 8.88043Z" fill="#8C969B"/>
<path d="M91.8181 14.5895C92.6053 14.5895 93.2725 14.702 93.8198 14.9232C94.3671 15.1481 94.8094 15.4555 95.1506 15.8491C95.4879 16.2427 95.7353 16.7075 95.889 17.2473C96.0427 17.7871 96.1215 18.3719 96.1215 19.0054V26.5438C95.9678 26.5888 95.7429 26.6413 95.4505 26.6938C95.1581 26.7462 94.8169 26.8062 94.4346 26.8662C94.0485 26.9262 93.6211 26.9786 93.1526 27.0161C92.684 27.0536 92.2004 27.0724 91.7056 27.0724C91.0721 27.0724 90.4911 27.0011 89.9588 26.8624C89.4265 26.7237 88.9654 26.5026 88.5718 26.2027C88.1782 25.9028 87.8708 25.5167 87.6459 25.0481C87.421 24.5795 87.3123 24.0023 87.3123 23.3238C87.3123 22.6753 87.436 22.1205 87.6834 21.6594C87.9308 21.1983 88.2757 20.816 88.7255 20.5161C89.1716 20.2162 89.7039 19.995 90.3224 19.8563C90.9371 19.7176 91.6082 19.6501 92.3354 19.6501C92.5528 19.6501 92.7777 19.6614 93.0176 19.6839C93.2575 19.7064 93.4862 19.7364 93.7111 19.7776C93.936 19.8151 94.1272 19.8563 94.2884 19.8938C94.4496 19.9313 94.562 19.9688 94.622 19.9988V19.2603C94.622 18.8442 94.592 18.4393 94.5283 18.0457C94.4683 17.6521 94.3334 17.2998 94.1235 16.9811C93.9135 16.6663 93.6211 16.4114 93.2463 16.2164C92.8677 16.0252 92.3729 15.9278 91.7543 15.9278C90.8772 15.9278 90.2212 15.9915 89.7901 16.1115C89.359 16.2352 89.0404 16.3364 88.8417 16.4114L88.6318 15.0918C88.8942 14.9681 89.299 14.8519 89.8463 14.747C90.3861 14.6458 91.0459 14.5895 91.8181 14.5895ZM91.9568 25.7379C92.5416 25.7379 93.0551 25.7191 93.4937 25.6816C93.9323 25.6441 94.3071 25.5917 94.6145 25.5317V21.322C94.4458 21.2433 94.1759 21.1646 93.8048 21.0784C93.4337 20.9921 92.9276 20.9509 92.2791 20.9509C91.908 20.9509 91.5219 20.9771 91.1246 21.0334C90.7235 21.0859 90.3524 21.2021 90.015 21.3782C89.6739 21.5544 89.3965 21.7981 89.1828 22.1055C88.9654 22.4129 88.8604 22.8215 88.8604 23.3313C88.8604 23.7773 88.9316 24.156 89.0816 24.4633C89.2278 24.7707 89.4377 25.0181 89.7076 25.2018C89.9775 25.3855 90.2999 25.5204 90.6785 25.6067C91.0496 25.6966 91.4769 25.7379 91.9568 25.7379Z" fill="#8C969B"/>
<path d="M99.9563 15.2868C100.402 15.1631 101.006 15.0244 101.759 14.8707C102.513 14.717 103.439 14.6383 104.533 14.6383C105.444 14.6383 106.201 14.7695 106.812 15.0319C107.42 15.2943 107.907 15.6691 108.271 16.1527C108.634 16.64 108.893 17.2211 109.047 17.8996C109.2 18.578 109.279 19.324 109.279 20.1412V26.825H107.776V20.6285C107.776 19.7813 107.72 19.0654 107.603 18.4768C107.487 17.8921 107.296 17.4122 107.026 17.0411C106.756 16.67 106.4 16.4039 105.962 16.2427C105.523 16.0815 104.972 15.999 104.308 15.999C103.6 15.999 102.985 16.0365 102.472 16.1152C101.954 16.1939 101.621 16.2614 101.467 16.3214V26.8212H99.9638V15.2868H99.9563Z" fill="#8C969B"/>
<path d="M116.746 14.5895C117.533 14.5895 118.201 14.702 118.748 14.9232C119.295 15.1481 119.738 15.4555 120.079 15.8491C120.42 16.2427 120.663 16.7075 120.817 17.2473C120.971 17.7871 121.05 18.3719 121.05 19.0054V26.5438C120.896 26.5888 120.671 26.6413 120.379 26.6938C120.086 26.7462 119.745 26.8062 119.363 26.8662C118.977 26.9262 118.549 26.9786 118.081 27.0161C117.612 27.0536 117.129 27.0724 116.634 27.0724C116 27.0724 115.419 27.0011 114.887 26.8624C114.355 26.7237 113.893 26.5026 113.5 26.2027C113.106 25.9028 112.799 25.5167 112.574 25.0481C112.349 24.5795 112.24 24.0023 112.24 23.3238C112.24 22.6753 112.364 22.1205 112.611 21.6594C112.859 21.1983 113.204 20.816 113.654 20.5161C114.1 20.2162 114.632 19.995 115.25 19.8563C115.865 19.7176 116.536 19.6501 117.263 19.6501C117.481 19.6501 117.706 19.6614 117.946 19.6839C118.186 19.7064 118.414 19.7364 118.639 19.7776C118.864 19.8151 119.055 19.8563 119.216 19.8938C119.378 19.9313 119.49 19.9688 119.55 19.9988V19.2603C119.55 18.8442 119.52 18.4393 119.456 18.0457C119.393 17.6521 119.261 17.2998 119.052 16.9811C118.845 16.6663 118.549 16.4114 118.174 16.2164C117.796 16.0252 117.301 15.9278 116.682 15.9278C115.805 15.9278 115.149 15.9915 114.718 16.1115C114.287 16.2352 113.968 16.3364 113.77 16.4114L113.56 15.0918C113.822 14.9681 114.227 14.8519 114.774 14.747C115.314 14.6458 115.974 14.5895 116.746 14.5895ZM116.885 25.7379C117.47 25.7379 117.983 25.7191 118.422 25.6816C118.86 25.6441 119.235 25.5917 119.543 25.5317V21.322C119.374 21.2433 119.104 21.1646 118.733 21.0784C118.362 20.9921 117.856 20.9509 117.207 20.9509C116.836 20.9509 116.45 20.9771 116.053 21.0334C115.652 21.0859 115.28 21.2021 114.943 21.3782C114.602 21.5544 114.325 21.7981 114.111 22.1055C113.893 22.4129 113.789 22.8215 113.789 23.3313C113.789 23.7773 113.86 24.156 114.01 24.4633C114.156 24.7707 114.366 25.0181 114.636 25.2018C114.906 25.3855 115.228 25.5204 115.607 25.6067C115.978 25.6966 116.405 25.7379 116.885 25.7379Z" fill="#8C969B"/>
<path d="M126.294 14.8707H131.058V16.1415H126.294V22.4991C126.294 23.1776 126.35 23.7286 126.466 24.1522C126.582 24.5758 126.747 24.9019 126.965 25.1343C127.182 25.3668 127.441 25.5205 127.752 25.5954C128.059 25.6741 128.401 25.7116 128.768 25.7116C129.401 25.7116 129.907 25.6367 130.294 25.4905C130.68 25.3443 130.98 25.2093 131.197 25.0856L131.568 26.3339C131.351 26.4726 130.976 26.63 130.436 26.8062C129.896 26.9824 129.311 27.0724 128.678 27.0724C127.939 27.0724 127.317 26.9749 126.815 26.7837C126.313 26.5926 125.911 26.3002 125.612 25.9066C125.312 25.513 125.098 25.0256 124.974 24.4371C124.851 23.8523 124.791 23.1588 124.791 22.3566V11.3545L126.294 11.0771V14.8707Z" fill="#8C969B"/>
<path d="M135.684 11.2608C135.684 11.6169 135.575 11.8981 135.362 12.1042C135.144 12.3142 134.882 12.4154 134.575 12.4154C134.267 12.4154 134.005 12.3104 133.787 12.1042C133.57 11.8981 133.465 11.6169 133.465 11.2608C133.465 10.9047 133.574 10.6235 133.787 10.4174C134.005 10.2074 134.263 10.1062 134.575 10.1062C134.882 10.1062 135.144 10.2112 135.362 10.4174C135.575 10.6235 135.684 10.9084 135.684 11.2608ZM135.336 26.825H133.832V14.8707H135.336V26.825Z" fill="#8C969B"/>
<path d="M144.265 27.0799C143.339 27.0799 142.522 26.9337 141.813 26.6413C141.105 26.3489 140.516 25.929 140.044 25.3818C139.575 24.8345 139.215 24.1785 138.968 23.4175C138.721 22.6528 138.597 21.8093 138.597 20.8872C138.597 19.9463 138.724 19.0916 138.979 18.3194C139.234 17.5472 139.601 16.8837 140.078 16.3289C140.554 15.7741 141.135 15.3468 141.813 15.0469C142.492 14.747 143.256 14.597 144.103 14.597C144.752 14.597 145.356 14.6495 145.918 14.7582C146.48 14.8669 146.915 15.0056 147.226 15.1743L146.832 16.4676C146.525 16.3139 146.176 16.1902 145.79 16.0965C145.404 16.0028 144.887 15.9578 144.242 15.9578C142.915 15.9578 141.911 16.3851 141.225 17.2398C140.539 18.0945 140.194 19.309 140.194 20.8834C140.194 21.5919 140.272 22.2442 140.426 22.8365C140.58 23.4287 140.831 23.9385 141.176 24.3621C141.524 24.7857 141.971 25.1193 142.518 25.3555C143.065 25.5954 143.732 25.7154 144.52 25.7154C145.168 25.7154 145.712 25.6404 146.15 25.4942C146.589 25.348 146.911 25.2206 147.11 25.1119L147.432 26.4089C147.155 26.5626 146.72 26.7125 146.124 26.8587C145.532 27.0049 144.909 27.0799 144.265 27.0799Z" fill="#8C969B"/>
<path d="M152.403 25.7604C153.265 25.7604 153.977 25.6179 154.543 25.333C155.106 25.0481 155.387 24.5683 155.387 23.8861C155.387 23.5637 155.338 23.2863 155.237 23.0539C155.136 22.8215 154.971 22.6153 154.738 22.4279C154.506 22.2442 154.202 22.0643 153.824 21.8956C153.445 21.7269 152.98 21.5245 152.425 21.2958C151.979 21.1121 151.556 20.9209 151.155 20.7298C150.754 20.5386 150.397 20.3137 150.09 20.0588C149.783 19.8039 149.535 19.5002 149.352 19.1441C149.168 18.788 149.074 18.3569 149.074 17.8471C149.074 16.8762 149.442 16.089 150.172 15.4892C150.903 14.8895 151.912 14.5858 153.19 14.5858C154.007 14.5858 154.682 14.657 155.214 14.7957C155.747 14.9344 156.122 15.0581 156.335 15.1668L155.987 16.5088C155.803 16.4151 155.488 16.2914 155.049 16.1377C154.611 15.984 153.966 15.9053 153.119 15.9053C152.778 15.9053 152.459 15.9391 152.159 16.0103C151.859 16.0815 151.593 16.1865 151.361 16.3364C151.128 16.4826 150.945 16.67 150.806 16.8912C150.667 17.1124 150.6 17.3898 150.6 17.7121C150.6 18.0383 150.66 18.3157 150.784 18.5481C150.907 18.7805 151.087 18.9867 151.327 19.1628C151.567 19.339 151.859 19.5077 152.204 19.6614C152.549 19.8151 152.946 19.9838 153.396 20.1675C153.857 20.3512 154.303 20.5386 154.727 20.7298C155.151 20.9209 155.525 21.1534 155.848 21.4233C156.17 21.6931 156.433 22.0155 156.635 22.3941C156.834 22.7727 156.935 23.2451 156.935 23.8149C156.935 24.8945 156.53 25.7116 155.72 26.2664C154.911 26.8212 153.805 27.0986 152.403 27.0986C151.353 27.0986 150.551 27.0087 149.996 26.8325C149.442 26.6563 149.07 26.5213 148.887 26.4276L149.28 25.0631C149.325 25.0931 149.427 25.1456 149.58 25.2131C149.734 25.2806 149.944 25.3593 150.206 25.4455C150.469 25.5317 150.78 25.6029 151.143 25.6667C151.507 25.7304 151.927 25.7604 152.403 25.7604Z" fill="#8C969B"/>
<path d="M161.977 25.8316C161.977 26.1877 161.864 26.4876 161.643 26.735C161.418 26.9824 161.107 27.1061 160.706 27.1061C160.305 27.1061 159.994 26.9824 159.769 26.735C159.544 26.4876 159.435 26.1877 159.435 25.8316C159.435 25.4755 159.548 25.1756 159.769 24.9282C159.994 24.6808 160.305 24.5571 160.706 24.5571C161.107 24.5571 161.418 24.6808 161.643 24.9282C161.864 25.1756 161.977 25.4755 161.977 25.8316Z" fill="#8C969B"/>
<path d="M165.538 15.2868C165.984 15.1631 166.588 15.0244 167.341 14.8707C168.095 14.717 169.02 14.6383 170.115 14.6383C171.026 14.6383 171.783 14.7695 172.394 15.0319C173.001 15.2943 173.489 15.6691 173.852 16.1527C174.216 16.64 174.475 17.2211 174.628 17.8996C174.782 18.578 174.861 19.324 174.861 20.1412V26.825H173.358V20.6285C173.358 19.7813 173.301 19.0654 173.185 18.4768C173.069 17.8921 172.878 17.4122 172.608 17.0411C172.338 16.67 171.982 16.4039 171.543 16.2427C171.105 16.0815 170.554 15.999 169.89 15.999C169.182 15.999 168.567 16.0365 168.053 16.1152C167.536 16.1939 167.202 16.2614 167.049 16.3214V26.8212H165.545V15.2868H165.538Z" fill="#8C969B"/>
<path d="M181.724 27.0349C181.215 27.0199 180.772 26.9524 180.394 26.8399C180.015 26.7237 179.7 26.5476 179.445 26.3076C179.19 26.0677 178.999 25.7604 178.868 25.3817C178.737 25.0031 178.673 24.5308 178.673 23.961V9.15783L180.176 8.88043V23.9123C180.176 24.2834 180.21 24.5795 180.281 24.8045C180.352 25.0294 180.454 25.2056 180.592 25.3368C180.731 25.468 180.911 25.5654 181.136 25.6254C181.361 25.6891 181.627 25.7416 181.934 25.7866L181.724 27.0349Z" fill="#8C969B"/>
<path d="M188.775 24.2234C188.775 24.6545 188.704 25.0369 188.566 25.3705C188.427 25.7041 188.239 25.989 188.007 26.2214C187.775 26.4538 187.505 26.63 187.197 26.7537C186.89 26.8774 186.568 26.9374 186.234 26.9374C185.9 26.9374 185.578 26.8774 185.271 26.7537C184.963 26.63 184.693 26.4538 184.461 26.2214C184.228 25.989 184.041 25.7041 183.902 25.3705C183.764 25.0369 183.692 24.6545 183.692 24.2234C183.692 23.7998 183.764 23.4175 183.902 23.0801C184.041 22.7427 184.228 22.4578 184.461 22.2292C184.693 22.0005 184.963 21.8243 185.271 21.7006C185.578 21.5769 185.9 21.5169 186.234 21.5169C186.568 21.5169 186.89 21.5769 187.197 21.7006C187.505 21.8243 187.775 22.0005 188.007 22.2292C188.239 22.4578 188.427 22.7427 188.566 23.0801C188.704 23.4175 188.775 23.7998 188.775 24.2234ZM188.333 24.2234C188.333 23.8786 188.281 23.5637 188.176 23.2788C188.071 22.9939 187.925 22.7502 187.741 22.5478C187.557 22.3454 187.336 22.1879 187.077 22.0792C186.819 21.9705 186.538 21.9143 186.234 21.9143C185.93 21.9143 185.649 21.9705 185.39 22.0792C185.132 22.1879 184.911 22.3454 184.727 22.5478C184.543 22.7502 184.397 22.9939 184.292 23.2788C184.187 23.5637 184.135 23.8786 184.135 24.2234C184.135 24.5683 184.187 24.8832 184.292 25.1681C184.397 25.453 184.543 25.6966 184.727 25.899C184.911 26.1015 185.132 26.2589 185.39 26.3714C185.649 26.4838 185.93 26.5401 186.234 26.5401C186.538 26.5401 186.819 26.4838 187.077 26.3714C187.336 26.2589 187.557 26.1015 187.741 25.899C187.925 25.6966 188.071 25.453 188.176 25.1681C188.281 24.8832 188.333 24.5683 188.333 24.2234ZM187.044 25.7079C186.912 25.4717 186.777 25.2505 186.639 25.0369C186.5 24.8232 186.376 24.6545 186.271 24.5308C186.238 24.5346 186.204 24.5383 186.174 24.5383C186.144 24.5383 186.118 24.5383 186.091 24.5383H185.619V25.7079H185.207V22.8065C185.323 22.7802 185.45 22.7615 185.593 22.7465C185.735 22.7315 185.87 22.724 185.994 22.724C186.418 22.724 186.744 22.8027 186.965 22.9564C187.186 23.1101 187.299 23.3463 187.299 23.6611C187.299 23.8411 187.25 24.0023 187.149 24.1447C187.047 24.2871 186.901 24.3921 186.706 24.4633C186.747 24.5083 186.8 24.5758 186.867 24.6695C186.935 24.7632 187.006 24.8644 187.081 24.9806C187.156 25.0968 187.231 25.2168 187.306 25.348C187.381 25.4792 187.445 25.5992 187.501 25.7079H187.044ZM185.619 24.2009H185.994C186.118 24.2009 186.234 24.1934 186.339 24.1784C186.444 24.1634 186.534 24.1335 186.613 24.0922C186.691 24.051 186.751 23.9948 186.792 23.9235C186.834 23.8523 186.856 23.7623 186.856 23.6536C186.856 23.5487 186.834 23.4587 186.785 23.3875C186.736 23.3163 186.676 23.2563 186.598 23.2113C186.519 23.1663 186.433 23.1326 186.331 23.1138C186.23 23.0951 186.125 23.0838 186.017 23.0838C185.942 23.0838 185.87 23.0839 185.803 23.0876C185.735 23.0913 185.675 23.0951 185.619 23.0988V24.2009Z" fill="#8C969B"/>
<path d="M26.6975 5.81407V0C24.9732 0.00374859 23.3988 0.314882 22.0081 0.888416C22.0006 0.892165 21.9893 0.895913 21.9818 0.899662V17.9708V17.9745C22.5366 16.0327 24.1335 14.7845 26.2927 14.777V9.19155C24.7408 9.1953 23.3163 9.46895 22.0418 9.95627C22.3754 7.47844 24.1635 5.82157 26.6975 5.81407Z" fill="#8C969B"/>
<path d="M15.7104 11.0508C14.5483 9.43145 12.4678 8.38934 9.85131 8.38934C5.48794 8.38934 0 11.5906 0 19.1965C0 25.4305 4.57328 30 11.0546 30C11.7968 30 12.5091 29.94 13.1951 29.8276V23.7248C12.569 24.021 11.8493 24.1859 11.0546 24.1859C8.22816 24.1859 6.31638 22.1504 6.31638 19.2003C6.31638 16.2501 8.22816 14.2147 11.0546 14.2147C13.4987 14.2147 15.3055 15.8528 15.7441 18.1844V11.1146L15.7104 11.0508Z" fill="#8C969B"/>
<path d="M18.0008 3.89478C16.6888 5.5779 15.8678 7.75583 15.7441 10.3161V10.3199V11.1108V18.1844V18.6418V29.1528V29.1566C16.6438 28.7854 17.4647 28.3056 18.192 27.7208C19.3128 26.8249 20.2574 25.5766 20.9247 24.1784C21.5919 22.7764 21.9818 21.2245 21.9818 19.7176V17.9708V17.967V0.899653V0.895905C20.3812 1.55566 19.0279 2.57902 18.0008 3.89478Z" fill="#8C969B"/>
</svg>
