<svg width="24" height="15" viewBox="0 0 24 15" fill="none" xmlns="http://www.w3.org/2000/svg">
<path d="M12.5475 6.1524L11.4225 7.18328C9.9 8.57865 8.1675 7.6299 7.60875 7.0224C6.6 5.9199 6.67875 4.21365 7.77375 3.20865L10.8413 0.399902H10.5938C8.42625 0.399902 6.34125 1.26053 4.8075 2.7924L1.2 2.80365C0.54 2.80365 0 3.34328 0 4.0029V9.9954C0 10.655 0.54 11.1969 1.16625 11.1969L5.4525 11.1947L8.84625 14.2629C9.8775 15.1018 11.3869 14.942 12.2213 13.9158L12.9008 14.4877C13.4963 14.9415 14.3775 14.8815 14.865 14.2863L16.0417 12.8388L16.2433 13.0076C16.7589 13.4201 17.5138 13.3451 17.9308 12.8295L18.2899 12.3859C18.7054 11.8721 18.6266 11.1203 18.1136 10.7036L12.5475 6.1524ZM22.8 2.80365L19.2 2.79893C17.6632 1.26293 15.579 0.403427 13.4063 0.403427L13.0838 0.399902C12.7838 0.399902 12.498 0.51979 12.273 0.721202L8.5875 4.08615L8.58 4.10115C7.95 4.69365 7.965 5.62365 8.4975 6.20115C8.85844 6.5949 9.81 7.0119 10.6024 6.30428C10.6024 6.29959 10.6118 6.29959 10.6164 6.2949L13.6164 3.55365C13.8602 3.33349 14.2397 3.34755 14.4647 3.59115C14.6897 3.83475 14.6709 4.2144 14.4272 4.4394L13.4477 5.33453L18.9077 9.76328C19.3622 10.138 19.6389 10.6442 19.7372 11.1875L22.8 11.1887C23.46 11.1887 24 10.6494 24 9.9894V4.00365C24 3.3399 23.4638 2.80365 22.8 2.80365Z" fill="#2C85C9"/>
</svg>
