<svg width="26" height="20" viewBox="0 0 26 20" fill="none" xmlns="http://www.w3.org/2000/svg">
<path d="M12.9961 12.5C15.2387 12.5 17.0234 10.6812 17.0234 8.4375C17.0234 6.19375 15.2055 4.375 12.9961 4.375C10.7535 4.375 8.96875 6.19375 8.96875 8.4375C8.93359 10.6797 10.7539 12.5 12.9961 12.5ZM14.9492 13.75H11.0508C7.98438 13.75 5.5 16.082 5.5 18.957C5.5 19.5352 5.99609 20 6.60937 20H19.3906C20.0039 20 20.5 19.5352 20.5 18.957C20.5 16.082 18.0156 13.75 14.9492 13.75ZM20.5 6.25C22.2258 6.25 23.625 4.85078 23.625 3.125C23.625 1.39922 22.2266 0 20.5 0C18.7742 0 17.375 1.39922 17.375 3.125C17.375 4.85078 18.7734 6.25 20.5 6.25ZM7.68359 8.4375C7.68359 8.22465 7.72197 8.02227 7.74645 7.81602C7.32031 7.58203 6.85156 7.5 6.35547 7.5H3.94063C2.04063 7.5 0.5 9.13281 0.5 11.1445C0.5 11.5469 0.808086 11.875 1.18828 11.875H8.98125C8.18359 10.9453 7.68359 9.75391 7.68359 8.4375ZM5.5 6.25C7.22578 6.25 8.625 4.85078 8.625 3.125C8.625 1.39922 7.22656 0 5.5 0C3.77422 0 2.375 1.39922 2.375 3.125C2.375 4.85078 3.77422 6.25 5.5 6.25ZM22.0586 7.5H19.643C19.143 7.5 18.6711 7.61863 18.2422 7.82188C18.2656 8.02734 18.3047 8.22656 18.3047 8.4375C18.3047 9.7543 17.8055 10.9457 17.0094 11.875H24.8102C25.1914 11.875 25.5 11.5469 25.5 11.1445C25.5 9.13281 23.9609 7.5 22.0586 7.5Z" fill="#2C85C9"/>
</svg>
