<svg width="18" height="18" viewBox="0 0 18 18" fill="none" xmlns="http://www.w3.org/2000/svg">
<path d="M7.34982 0.100007C6.10286 0.0995238 4.87746 0.42516 3.79524 1.04459C2.71302 1.66403 1.81161 2.55572 1.18049 3.63117C0.549362 4.70661 0.210467 5.92841 0.197439 7.1753C0.184411 8.42219 0.497702 9.65081 1.10622 10.7392L0.231717 13.0294C0.158929 13.2198 0.140465 13.4266 0.178386 13.6269C0.216307 13.8272 0.309121 14.0129 0.446473 14.1635C0.583825 14.3141 0.760314 14.4236 0.956251 14.4797C1.15219 14.5358 1.35987 14.5364 1.55612 14.4814L4.29182 13.7147C5.26086 14.1726 6.32044 14.4067 7.39219 14.3999C8.46394 14.393 9.52044 14.1453 10.4835 13.675C11.4466 13.2047 12.2917 12.524 12.9562 11.6831C13.6207 10.8422 14.0877 9.86265 14.3225 8.81693C14.5574 7.77121 14.5542 6.68607 14.3131 5.64176C14.0721 4.59746 13.5993 3.62071 12.9298 2.78376C12.2603 1.94681 11.4113 1.27107 10.4454 0.806529C9.47953 0.341988 8.42159 0.100527 7.34982 0.100007ZM7.34102 4.39111C6.94722 4.46811 6.51602 4.72331 6.17722 5.32171C6.14154 5.38454 6.09383 5.43974 6.03682 5.48414C5.97981 5.52854 5.91461 5.56128 5.84495 5.58048C5.77528 5.59968 5.70252 5.60498 5.63081 5.59606C5.5591 5.58714 5.48985 5.56419 5.42702 5.52851C5.36418 5.49283 5.30898 5.44512 5.26459 5.38811C5.22018 5.3311 5.18745 5.2659 5.16825 5.19624C5.14904 5.12657 5.14375 5.05381 5.15267 4.9821C5.16158 4.91039 5.18454 4.84114 5.22022 4.77831C5.70532 3.92471 6.39502 3.45501 7.12982 3.31201C7.81352 3.18276 8.52068 3.32522 9.10102 3.70911C9.63342 4.06111 10.0635 4.63641 10.0767 5.32611C10.091 6.04661 9.65322 6.69671 8.84582 7.17411C8.29802 7.49751 8.08462 7.71751 7.99332 7.86381C7.91632 7.98701 7.89982 8.09921 7.89982 8.35001C7.89982 8.49588 7.84187 8.63577 7.73873 8.73892C7.63558 8.84206 7.49569 8.90001 7.34982 8.90001C7.20395 8.90001 7.06405 8.84206 6.96091 8.73892C6.85776 8.63577 6.79982 8.49588 6.79982 8.35001C6.79982 8.05081 6.81522 7.67901 7.06052 7.28301C7.29152 6.91231 7.68642 6.58231 8.28702 6.22701C8.87552 5.87831 8.98222 5.54721 8.97892 5.34921C8.97452 5.12151 8.82272 4.84321 8.49492 4.62651C8.15553 4.40198 7.74237 4.31761 7.34212 4.39111H7.34102ZM7.62372 11.65C7.40491 11.65 7.19507 11.5631 7.04035 11.4084C6.88564 11.2537 6.79872 11.0438 6.79872 10.825C6.79872 10.6062 6.88564 10.3964 7.04035 10.2416C7.19507 10.0869 7.40491 10 7.62372 10C7.84252 10 8.05236 10.0869 8.20708 10.2416C8.3618 10.3964 8.44872 10.6062 8.44872 10.825C8.44872 11.0438 8.3618 11.2537 8.20708 11.4084C8.05236 11.5631 7.84252 11.65 7.62372 11.65ZM5.18832 15.214C5.85887 15.9948 6.69045 16.6213 7.62596 17.0504C8.56148 17.4796 9.57878 17.7011 10.608 17.7C11.7003 17.7 12.7376 17.4547 13.666 17.0147L16.4006 17.7814C16.5969 17.8364 16.8045 17.8358 17.0005 17.7797C17.1964 17.7236 17.3729 17.6141 17.5103 17.4635C17.6476 17.3129 17.7404 17.1272 17.7783 16.9269C17.8163 16.7266 17.7978 16.5198 17.725 16.3294L16.8505 14.0392C17.447 12.9731 17.7595 11.7716 17.758 10.55C17.758 8.41601 16.823 6.49981 15.3391 5.18971C15.5018 5.82324 15.5886 6.47388 15.5976 7.12791C16.2664 8.10141 16.658 9.28061 16.658 10.55C16.658 11.705 16.3346 12.7841 15.7725 13.7026L15.6317 13.9336L16.6987 16.7221L13.5527 15.8421L13.3602 15.9389C12.5352 16.3613 11.6002 16.6 10.608 16.6C9.36054 16.6019 8.14326 16.2164 7.12432 15.4967C6.47005 15.4796 5.82015 15.3847 5.18832 15.214Z" fill="#2C85C9"/>
</svg>
