<svg width="20" height="19" viewBox="0 0 20 19" fill="none" xmlns="http://www.w3.org/2000/svg">
<path d="M17.3335 4.5H14.5835V2.66667C14.5835 1.65559 13.7612 0.833336 12.7502 0.833336H7.25016C6.23908 0.833336 5.41683 1.65559 5.41683 2.66667V4.5H2.66683C1.65575 4.5 0.833496 5.32225 0.833496 6.33334V10H5.41683V8.16667H7.25016V10H12.7502V8.16667H14.5835V10H19.1668V6.33334C19.1668 5.32225 18.3446 4.5 17.3335 4.5ZM7.25016 2.66667H12.7502V4.5H7.25016V2.66667ZM14.5835 12.75H12.7502V10.9167H7.25016V12.75H5.41683V10.9167H0.833496V16.4167C0.833496 17.4278 1.65575 18.25 2.66683 18.25H17.3335C18.3446 18.25 19.1668 17.4278 19.1668 16.4167V10.9167H14.5835V12.75Z" fill="#2C85C9"/>
</svg>
