<svg width="20" height="20" viewBox="0 0 20 20" fill="none" xmlns="http://www.w3.org/2000/svg">
<path d="M17.2767 10.9166C17.0726 12.5322 16.337 14.0339 15.1855 15.1853C14.0341 16.3368 12.5324 17.0724 10.9168 17.2765V19.1666H9.0835V17.2765C7.46797 17.0724 5.96622 16.3368 4.81479 15.1853C3.66337 14.0339 2.9277 12.5322 2.72366 10.9166H0.833496V9.08331H2.72366C2.9277 7.46779 3.66337 5.96604 4.81479 4.81461C5.96622 3.66319 7.46797 2.92752 9.0835 2.72348V0.833313H10.9168V2.72348C12.5324 2.92752 14.0341 3.66319 15.1855 4.81461C16.337 5.96604 17.0726 7.46779 17.2767 9.08331H19.1668V10.9166H17.2767ZM10.0002 15.5C11.4589 15.5 12.8578 14.9205 13.8892 13.8891C14.9207 12.8576 15.5002 11.4587 15.5002 9.99998C15.5002 8.54129 14.9207 7.14234 13.8892 6.11089C12.8578 5.07944 11.4589 4.49998 10.0002 4.49998C8.54147 4.49998 7.14253 5.07944 6.11108 6.11089C5.07963 7.14234 4.50016 8.54129 4.50016 9.99998C4.50016 11.4587 5.07963 12.8576 6.11108 13.8891C7.14253 14.9205 8.54147 15.5 10.0002 15.5ZM10.0002 12.75C10.7295 12.75 11.429 12.4602 11.9447 11.9445C12.4604 11.4288 12.7502 10.7293 12.7502 9.99998C12.7502 9.27063 12.4604 8.57116 11.9447 8.05544C11.429 7.53971 10.7295 7.24998 10.0002 7.24998C9.27082 7.24998 8.57134 7.53971 8.05562 8.05544C7.53989 8.57116 7.25016 9.27063 7.25016 9.99998C7.25016 10.7293 7.53989 11.4288 8.05562 11.9445C8.57134 12.4602 9.27082 12.75 10.0002 12.75Z" fill="#2C85C9"/>
</svg>
