<svg width="20" height="20" viewBox="0 0 20 20" fill="none" xmlns="http://www.w3.org/2000/svg">
<path d="M6.11718 15.0352L4.91015 13.793C4.57812 13.4961 4.46093 13.0117 4.57421 12.5703C4.6914 12.2227 4.84765 11.7695 5.07031 11.25H0.937496C0.600778 11.25 0.289606 11.0703 0.122888 10.7774C-0.0438703 10.4844 -0.0407062 10.125 0.13113 9.83595L2.18086 6.37892C2.6871 5.52345 3.60664 4.96486 4.60156 4.96486H7.81249C7.90624 4.84377 7.99999 4.69923 8.09374 4.55861C11.293 -0.158967 16.0586 -0.31803 18.9023 0.206072C19.3594 0.289626 19.7109 0.641814 19.793 1.09611C20.3164 3.94142 20.1601 8.70704 15.4414 11.9063C15.3047 12 15.1211 12.0938 15 12.1524V15.3984C15 16.3945 14.4765 17.3125 13.6211 17.8203L10.1641 19.8672C9.87499 20.0391 9.51562 20.043 9.22265 19.8789C8.92968 19.7109 8.74999 19.3984 8.74999 19.0625V14.875C8.19921 15.0625 7.71874 15.2227 7.35546 15.3399C6.91796 15.4805 6.4414 15.3594 6.11718 15.0352ZM15 6.52736C15.8633 6.52736 16.5625 5.8633 16.5625 4.96486C16.5625 4.13673 15.8633 3.40236 15 3.40236C14.1367 3.40236 13.4375 4.13673 13.4375 4.96486C13.4375 5.8633 14.1367 6.52736 15 6.52736Z" fill="#2C85C9"/>
</svg>
