<svg width="21" height="20" viewBox="0 0 21 20" fill="none" xmlns="http://www.w3.org/2000/svg">
<path d="M1.75 6.875H16.2344L13.993 9.11641C13.5047 9.60469 13.5047 10.3957 13.993 10.884C14.2344 11.1289 14.5547 11.25 14.875 11.25C15.1953 11.25 15.5148 11.1279 15.7586 10.8838L20.1336 6.50879C20.6219 6.02051 20.6219 5.22949 20.1336 4.74121L15.7586 0.366211C15.2703 -0.12207 14.4793 -0.12207 13.991 0.366211C13.5027 0.854492 13.5027 1.64551 13.991 2.13379L16.2344 4.375H1.75C1.05898 4.375 0.5 4.93398 0.5 5.625C0.5 6.31602 1.05898 6.875 1.75 6.875ZM19.25 13.125H4.76953L7.01094 10.8836C7.49922 10.3953 7.49922 9.6043 7.01094 9.11602C6.52266 8.62773 5.73164 8.62773 5.24336 9.11602L0.868359 13.491C0.380078 13.9793 0.380078 14.7703 0.868359 15.2586L5.24336 19.6336C5.48438 19.8789 5.80469 20 6.125 20C6.44531 20 6.76484 19.8779 7.00859 19.6338C7.49687 19.1455 7.49687 18.3545 7.00859 17.8662L4.76953 15.625H19.25C19.941 15.625 20.5 15.066 20.5 14.375C20.5 13.684 19.9414 13.125 19.25 13.125Z" fill="#2C85C9"/>
</svg>
