<svg width="24" height="25" viewBox="0 0 24 25" fill="none" xmlns="http://www.w3.org/2000/svg">
<path d="M7 11.3389C6.40905 11.3389 5.82389 11.2225 5.27792 10.9963C4.73196 10.7702 4.23588 10.4387 3.81802 10.0208C3.40016 9.60298 3.06869 9.10691 2.84254 8.56094C2.6164 8.01498 2.5 7.42982 2.5 6.83887C2.5 6.24792 2.6164 5.66276 2.84254 5.11679C3.06869 4.57083 3.40016 4.07475 3.81802 3.65689C4.23588 3.23902 4.73196 2.90756 5.27792 2.68141C5.82389 2.45526 6.40905 2.33887 7 2.33887C8.19347 2.33887 9.33807 2.81297 10.182 3.65689C11.0259 4.5008 11.5 5.64539 11.5 6.83887C11.5 8.03234 11.0259 9.17693 10.182 10.0208C9.33807 10.8648 8.19347 11.3389 7 11.3389ZM17.5 15.3389C16.4391 15.3389 15.4217 14.9174 14.6716 14.1673C13.9214 13.4171 13.5 12.3997 13.5 11.3389C13.5 10.278 13.9214 9.26059 14.6716 8.51044C15.4217 7.76029 16.4391 7.33887 17.5 7.33887C18.5609 7.33887 19.5783 7.76029 20.3284 8.51044C21.0786 9.26059 21.5 10.278 21.5 11.3389C21.5 12.3997 21.0786 13.4171 20.3284 14.1673C19.5783 14.9174 18.5609 15.3389 17.5 15.3389ZM17.5 16.3389C18.6935 16.3389 19.8381 16.813 20.682 17.6569C21.5259 18.5008 22 19.6454 22 20.8389V21.3389H13V20.8389C13 19.6454 13.4741 18.5008 14.318 17.6569C15.1619 16.813 16.3065 16.3389 17.5 16.3389ZM7 12.3389C7.65661 12.3389 8.30679 12.4682 8.91342 12.7195C9.52004 12.9707 10.0712 13.339 10.5355 13.8033C10.9998 14.2676 11.3681 14.8188 11.6194 15.4255C11.8707 16.0321 12 16.6823 12 17.3389V21.3389H2V17.3389C2 16.0128 2.52678 14.741 3.46447 13.8033C4.40215 12.8657 5.67392 12.3389 7 12.3389Z" fill="#2C85C9"/>
</svg>
