<svg width="20" height="20" viewBox="0 0 20 20" fill="none" xmlns="http://www.w3.org/2000/svg">
<path d="M18.2393 3.2875L10.7393 0.1625C10.5479 0.0828125 10.2236 0.0175781 10.0166 0.0175781C9.80957 0.0175781 9.48926 0.0828125 9.29785 0.162187L1.79785 3.28719C1.09863 3.57617 0.641602 4.25977 0.641602 4.98242C0.641602 15.0293 8.03223 19.9824 9.98145 19.9824C11.9775 19.9824 19.3564 14.9746 19.3564 4.98242C19.3916 4.25977 18.9346 3.57617 18.2393 3.2875ZM10.0166 17.459L10.0175 2.57227C10.0177 2.57135 10.0175 2.57227 10.0175 2.57227L16.8886 5.43047C16.7275 12.5059 12.4775 16.3105 10.0166 17.459Z" fill="#2C85C9"/>
</svg>
