<svg width="20" height="20" viewBox="0 0 20 20" fill="none" xmlns="http://www.w3.org/2000/svg">
<path d="M14.56 11.985C14.3125 11.8609 13.095 11.2625 12.8683 11.1792C12.6408 11.0967 12.4758 11.0559 12.31 11.3042C12.1458 11.5517 11.6708 12.1092 11.5267 12.2742C11.3825 12.44 11.2375 12.46 10.99 12.3367C10.7425 12.2117 9.94417 11.9509 8.99833 11.1075C8.2625 10.4509 7.765 9.64003 7.62083 9.3917C7.47667 9.1442 7.60583 9.01003 7.72917 8.8867C7.84083 8.77587 7.9775 8.59753 8.10083 8.45337C8.225 8.30837 8.26583 8.20504 8.34917 8.0392C8.43167 7.8742 8.39083 7.73003 8.32833 7.60587C8.26583 7.4817 7.77083 6.26253 7.565 5.7667C7.36333 5.2842 7.15917 5.35003 7.0075 5.3417C6.84925 5.3354 6.69088 5.33262 6.5325 5.33337C6.3675 5.33337 6.09917 5.39503 5.8725 5.64337C5.64583 5.89087 5.00583 6.49003 5.00583 7.7092C5.00583 8.92754 5.89333 10.105 6.01667 10.2709C6.14083 10.4359 7.76333 12.9375 10.2475 14.01C10.8383 14.265 11.2992 14.4175 11.6592 14.5309C12.2525 14.72 12.7925 14.6934 13.2183 14.6292C13.6942 14.5584 14.6833 14.03 14.89 13.4517C15.0967 12.8734 15.0967 12.3775 15.0342 12.2742C14.9725 12.1709 14.8075 12.1092 14.5592 11.985H14.56ZM10.0417 18.1542H10.0383C8.56314 18.1543 7.11507 17.7577 5.84583 17.0059L5.545 16.8275L2.4275 17.6459L3.25917 14.6059L3.06333 14.2942C2.2387 12.9811 1.80245 11.4614 1.805 9.91087C1.80583 5.3692 5.50167 1.6742 10.045 1.6742C12.245 1.6742 14.3133 2.53253 15.8683 4.0892C16.6356 4.85305 17.2437 5.76147 17.6575 6.7619C18.0713 7.76233 18.2826 8.8349 18.2792 9.91753C18.2767 14.4592 14.5817 18.1542 10.0417 18.1542ZM17.0525 2.9067C16.1343 1.98247 15.0419 1.24965 13.8384 0.750701C12.635 0.251754 11.3444 -0.00339687 10.0417 3.4148e-05C4.57917 3.4148e-05 0.133334 4.44587 0.130834 9.91004C0.130834 11.6567 0.586667 13.3617 1.45417 14.8642L0.0475006 20L5.30167 18.6217C6.75466 19.4133 8.38286 19.8282 10.0375 19.8284H10.0417C15.5033 19.8284 19.95 15.3825 19.9525 9.91753C19.9565 8.61526 19.7023 7.32512 19.2045 6.12173C18.7067 4.91834 17.9753 3.82559 17.0525 2.9067Z" fill="#2C85C9"/>
</svg>
