<svg width="20" height="18" viewBox="0 0 20 18" fill="none" xmlns="http://www.w3.org/2000/svg">
<path d="M19.9999 5.46101C19.9999 10.4571 17.2636 14.6524 13.1523 16.0118C12.3695 16.3219 11.5183 16.4985 10.6253 16.4985C8.09017 16.4985 5.7347 15.0723 4.5433 12.8083C2.42884 14.7587 1.85931 16.988 1.84955 17.0309C1.74681 17.461 1.36205 17.7501 0.938219 17.7501C0.866188 17.7501 0.792633 17.7415 0.719391 17.7244C0.215876 17.6034 -0.0946711 17.0963 0.026032 16.5932C0.400954 15.0502 3.56001 7.74944 13.1237 7.74944C13.4687 7.75007 13.7499 7.46882 13.7499 7.12507C13.7499 6.78132 13.4687 6.50007 13.1249 6.50007C8.92962 6.50007 5.89837 7.85163 3.76127 9.4532C3.76882 9.0305 3.80978 8.60007 3.89935 8.16218C4.42552 5.59148 6.47904 3.51375 9.03216 2.92C10.1388 2.66367 11.2072 2.68511 12.1935 2.91978C14.381 3.4401 16.8107 2.63025 18.0255 0.5276C18.2468 0.14369 18.8075 0.15588 18.9888 0.55995C19.6367 1.99851 19.9999 3.76179 19.9999 5.46101Z" fill="#2C85C9"/>
</svg>
