<?xml version="1.0" encoding="utf-8"?>
<!-- Generator: Adobe Illustrator 22.1.0, SVG Export Plug-In . SVG Version: 6.00 Build 0)  -->
<svg version="1.1" id="Capa_1" xmlns="http://www.w3.org/2000/svg" xmlns:xlink="http://www.w3.org/1999/xlink" x="0px" y="0px"
	 viewBox="0 0 31.7 31.7" style="enable-background:new 0 0 31.7 31.7;" xml:space="preserve">
<style type="text/css">
	.st0{fill:#FFFFFF;}
</style>
<g>
	<g>
		<path class="st0" d="M10.6,25.7H4.7c-1.1,0-2.1-0.9-2.1-2V5.4c0-1.1,0.9-2,2.1-2H19c1.1,0,2,0.9,2,2v15.3l2.6-3.1V3.5
			c0-1.5-1.2-2.7-2.7-2.7H2.6C1.1,0.8,0,1.9,0,3.4v22.4c0,1.5,1.2,2.7,2.7,2.7H13l-1.2-1.1C11.3,26.9,10.9,26.3,10.6,25.7z"/>
		<path class="st0" d="M17.9,6.8H6c-0.7,0-1.3,0.6-1.3,1.3S5.3,9.4,6,9.4h11.8c0.7,0,1.3-0.6,1.3-1.3C19.2,7.4,18.6,6.8,17.9,6.8z"
			/>
		<path class="st0" d="M17.9,11.2H6c-0.7,0-1.3,0.6-1.3,1.3s0.6,1.3,1.3,1.3h11.8c0.7,0,1.3-0.6,1.3-1.3
			C19.2,11.8,18.6,11.2,17.9,11.2z"/>
		<path class="st0" d="M17.9,15.6H6c-0.7,0-1.3,0.6-1.3,1.3c0,0.7,0.6,1.3,1.3,1.3h11.8c0.7,0,1.3-0.6,1.3-1.3
			C19.2,16.1,18.6,15.6,17.9,15.6z"/>
		<path class="st0" d="M4.7,21.1c0,0.7,0.6,1.3,1.3,1.3h4.4c0.2-0.5,0.5-1,0.9-1.5s0.9-0.8,1.4-1.1H6C5.3,19.8,4.7,20.3,4.7,21.1z"
			/>
		<path class="st0" d="M17.9,19.8h-1c0.3,0.1,0.6,0.4,0.9,0.6l1.3,1.1c0-0.1,0.1-0.3,0.1-0.4C19.2,20.3,18.6,19.8,17.9,19.8z"/>
		<path class="st0" d="M30.9,16.2c-1-0.8-2.4-0.7-3.2,0.3l-7.6,8.9l-3.8-3.2c-1-0.8-2.4-0.7-3.2,0.2c-0.8,1-0.7,2.4,0.2,3.2l5.5,4.8
			c0.4,0.4,1,0.6,1.5,0.6c0.1,0,0.1,0,0.2,0c0.6,0,1.2-0.3,1.6-0.8l9.1-10.6C32,18.5,31.9,17.1,30.9,16.2z"/>
	</g>
</g>
</svg>
