<svg xmlns="http://www.w3.org/2000/svg" xmlns:xlink="http://www.w3.org/1999/xlink" version="1.1" style="enable-background:new 0 0 1200 800;" xml:space="preserve" width="1096" height="354"><rect id="backgroundrect" width="100%" height="100%" x="0" y="0" fill="none" stroke="none"/>
<style type="text/css">
	.st0{fill:#666666;}
	.st1{fill:#333333;}
</style>


<g class="currentLayer" style=""><title>Layer 1</title><g id="Logotype" class="">
	<path id="Shape" class="st0" d="M286.7000015258789,114.60000610351562 h28.5 l40.5,90.1 l39,-90.1 h28.5 l-68.3,143.3 L286.7000015258789,114.60000610351562 z"/>
	<path id="Shape_1_" class="st0" d="M487.10000152587895,253.40000610351564 c-41.3,0 -75.1,-32.3 -75.1,-71.3 s33,-71.3 75.1,-71.3 c41.3,0 74.3,30.8 74.3,72 C561.4000015258789,221.90000610351564 526.9000015258789,253.40000610351564 487.10000152587895,253.40000610351564 M487.10000152587895,134.10000610351562 c-26.3,0 -47.3,21 -47.3,47.3 c0,25.5 21,48.8 46.5,48.8 c27,0 48,-21 48,-48 C533.600001525879,155.10000610351562 512.600001525879,134.10000610351562 487.10000152587895,134.10000610351562 "/>
	<path id="Shape_2_" class="st0" d="M574.9000015258789,250.40000610351564 V114.60000610351562 h25.5 v112.6 h57 v23.3 H574.9000015258789 z"/>
	<path id="Shape_3_" class="st0" d="M756.5000015258789,114.60000610351562 h25.5 v119.3 c-10.5,11.3 -28.5,20.3 -56.3,20.3 c-36,0 -56.3,-17.3 -56.3,-53.3 v-86.3 h25.5 v71.3 c0,34.5 6.8,45 34.5,45 c11.3,0 20.3,-3 27,-7.5 V114.60000610351562 z"/>
	<path id="Shape_4_" class="st0" d="M889.4000015258789,114.60000610351562 H914.9000015258789 v119.3 c-10.5,11.3 -28.5,20.3 -56.3,20.3 c-36,0 -56.3,-17.3 -56.3,-53.3 v-86.3 h25.5 v71.3 c0,34.5 6.8,45 34.5,45 c11.3,0 20.3,-3 27,-7.5 V114.60000610351562 z"/>
	<path id="Shape_5_" class="st0" d="M1068.7000015258789,250.40000610351564 l-7.5,-69 l-46.5,74.3 L968.9000015258789,182.10000610351562 l-6.8,68.3 h-27.8 l18.8,-139.6 l62.3,98.3 l61.5,-98.3 l18.8,139.6 H1068.7000015258789 z"/>
</g><g id="Sygnet" class="">
	<path id="Shape_6_" class="st1" d="M183.9000015258789,174.10000610351562 v96.1 l-74.3,43.5 l-74.3,-43.5 v-95.3 L0.0000015258789076710855,114.10000610351562 v177.1 l109.6,63 l109.6,-63 V112.60000610351562 L183.9000015258789,174.10000610351562 z"/>
	<path id="Shape_7_" class="st1" d="M109.6000015258789,0.000006103515630684342 L0.0000015258789076710855,64.5000061035156 V105.10000610351562 l109.6,-63.8 l71.3,41.3 l-71.3,123.8 l-44.3,-76.6 H138.9000015258789 l20.3,-35.3 H45.10000152587891 l-31.5,17.3 l96.1,165.1 l109.6,-189.9 v-22.5 L109.6000015258789,0.000006103515630684342 z"/>
</g></g></svg>