<?xml version="1.0" encoding="utf-8"?>
<!-- Generator: Adobe Illustrator 22.1.0, SVG Export Plug-In . SVG Version: 6.00 Build 0)  -->
<svg version="1.1" id="Layer_1" xmlns="http://www.w3.org/2000/svg" xmlns:xlink="http://www.w3.org/1999/xlink" x="0px" y="0px"
	 viewBox="0 0 511 511" style="enable-background:new 0 0 511 511;" xml:space="preserve">
<style type="text/css">
	.st0{fill:#FFFFFF;}
</style>
<path class="st0" d="M60.2,364.4l-14,20.1c-0.9,1.3-1.6,2.8-2.1,4.3l-13.5,45.4c-1.8,6.2,0.5,12.8,5.8,16.5s12.3,3.6,17.5-0.2
	l37.9-28.1C73.3,409.3,61.1,388.3,60.2,364.4z"/>
<path class="st0" d="M496,226.6h-44.9v224.6c0,11.1,11.7,18.4,21.7,13.4l32.2-23.9c3.8-2.8,6.1-7.3,6.1-12V241.5
	C511,233.3,504.3,226.6,496,226.6z"/>
<path class="st0" d="M298.8,49.6c-6.8-4.7-16.1-3.1-20.9,3.7l-25.8,36.8l49.1,34.4L327,87.6c4.7-6.8,3.1-16.1-3.7-20.9L298.8,49.6z"
	/>
<path class="st0" d="M112,290.4c7.2-2.3,14.8-3.9,22.7-3.9h53.1L284.1,149L235,114.6L112,290.4z"/>
<path class="st0" d="M107.2,164.3c-8.3,3.6-15.2,9.5-20,17.1L4.7,311.3c-10.3,20.7-3,45.5,16,57.7c0.3-0.5,0.5-1.2,0.8-1.7
	l160.9-229.9c-6-0.4-12.1,0-18.3,2.1L107.2,164.3z"/>
<path class="st0" d="M119.7,434.7v9c0,12.4,10.1,22.5,22.5,22.5s22.5-10.1,22.5-22.5v-7.5h-29.9
	C129.6,436.2,124.6,435.6,119.7,434.7z"/>
<path class="st0" d="M194.6,436.2v7.5c0,12.4,10.1,22.5,22.5,22.5c11,0,19.7-8,21.7-18.5c-4.9-2-9.8-3.8-14.6-6.2l-10.4-5.3H194.6
	L194.6,436.2z"/>
<path class="st0" d="M421.2,226.6h-27.5l-95.1-46.1l-73.3,104.6c18.2-2.8,35.4-11.1,48.5-24.2c5.8-5.8,15.3-5.8,21.2,0
	c5.9,5.8,5.8,15.3,0,21.2c-21.8,21.8-52,34.3-82.9,34.3c-16.1,0-82,0-77.4,0c-24,0-44.9,19.5-44.9,44.9c0,24.9,20.1,44.9,44.9,44.9
	h86.2c7.2,2.8,47.2,29.9,108.4,29.9c31,0,63.9-7.2,91.8-20.7L421.2,226.6L421.2,226.6z"/>
</svg>
