<svg width="46" height="48" viewBox="0 0 46 48" fill="none" xmlns="http://www.w3.org/2000/svg">
<path d="M45.5 16.75V24.25C45.5 30.4625 35.425 35.5 23 35.5C10.575 35.5 0.5 30.4625 0.5 24.25V16.75C0.5 22.9625 10.575 28 23 28C35.425 28 45.5 22.9625 45.5 16.75ZM0.5 29.25C0.5 35.4625 10.575 40.5 23 40.5C35.425 40.5 45.5 35.4625 45.5 29.25V36.75C45.5 42.9625 35.425 48 23 48C10.575 48 0.5 42.9625 0.5 36.75V29.25ZM23 23C10.575 23 0.5 17.9625 0.5 11.75C0.5 5.5375 10.575 0.5 23 0.5C35.425 0.5 45.5 5.5375 45.5 11.75C45.5 17.9625 35.425 23 23 23Z" fill="white"/>
</svg>
