<svg width="60" height="46" viewBox="0 0 60 46" fill="none" xmlns="http://www.w3.org/2000/svg">
<path d="M52.5 13V10.5L45 15.5L37.5 10.5V13L44.3 17.55C44.725 17.825 45.275 17.825 45.675 17.55L52.5 13ZM55 0.5H5C2.25 0.5 0 2.75 0 5.5V40.5C0 43.25 2.25 45.5 5 45.5H55C57.75 45.5 59.975 43.25 59.975 40.5L60 5.5C60 2.75 57.75 0.5 55 0.5ZM20 8C24.15 8 27.5 11.35 27.5 15.5C27.5 19.65 24.15 23 20 23C15.85 23 12.5 19.65 12.5 15.5C12.5 11.35 15.85 8 20 8ZM35 38H5V35.5C5 30.5 15 27.75 20 27.75C25 27.75 35 30.5 35 35.5V38ZM53.75 23H36.25C35.55 23 35 22.45 35 21.75V9.25C35 8.55 35.55 8 36.25 8H53.75C54.45 8 55 8.55 55 9.25V21.75C55 22.45 54.45 23 53.75 23Z" fill="white"/>
</svg>
