<svg width="20" height="20" viewBox="0 0 20 20" fill="none" xmlns="http://www.w3.org/2000/svg">
<path d="M16.404 0.997958C15.647 0.243958 14.327 0.246958 13.576 1.00296L11.792 2.79396L9.58602 4.99996H5.00002C4.79485 4.99981 4.59461 5.06291 4.42659 5.18065C4.25857 5.29839 4.13091 5.46506 4.06102 5.65796L0.061017 16.658C-0.071983 17.023 0.0190169 17.432 0.293017 17.707L2.29302 19.707C2.42747 19.8418 2.5977 19.9352 2.78359 19.9763C2.96949 20.0175 3.16326 20.0045 3.34202 19.939L14.342 15.939C14.5349 15.8691 14.7016 15.7414 14.8193 15.5734C14.9371 15.4054 15.0002 15.2051 15 15V10.414L17.207 8.20696V8.20596H17.208L19 6.40896C19.378 6.03096 19.586 5.52796 19.585 4.99396C19.585 4.45896 19.376 3.95596 18.997 3.57896L16.404 0.997958ZM13.293 9.29296C13.2 9.38566 13.1262 9.49586 13.0759 9.61719C13.0256 9.73853 12.9998 9.86861 13 9.99996V14.3L3.75102 17.663L8.42202 12.992C8.44802 12.993 8.47402 13 8.50002 13C8.79669 13 9.0867 12.912 9.33337 12.7472C9.58005 12.5823 9.77231 12.3481 9.88584 12.074C9.99937 11.7999 10.0291 11.4983 9.9712 11.2073C9.91332 10.9164 9.77046 10.6491 9.56068 10.4393C9.3509 10.2295 9.08362 10.0867 8.79265 10.0288C8.50168 9.9709 8.20008 10.0006 7.92599 10.1141C7.6519 10.2277 7.41763 10.4199 7.25281 10.6666C7.08799 10.9133 7.00002 11.2033 7.00002 11.5C7.00002 11.526 7.00702 11.552 7.00802 11.578L2.33702 16.249L5.70002 6.99996H10C10.266 6.99996 10.52 6.89496 10.707 6.70696L12.5 4.91396L15.086 7.49996L13.293 9.29296ZM16.499 6.08496L13.913 3.49896L14.992 2.41496L17.585 4.99596L16.499 6.08496Z" fill="#fff"/>
</svg>
