<svg width="14" height="12" viewBox="0 0 14 12" fill="none" xmlns="http://www.w3.org/2000/svg">
<path d="M11.6667 0.666626H2.33334C1.80291 0.666626 1.2942 0.87734 0.91913 1.25241C0.544057 1.62749 0.333344 2.13619 0.333344 2.66663V9.33329C0.333344 9.86372 0.544057 10.3724 0.91913 10.7475C1.2942 11.1226 1.80291 11.3333 2.33334 11.3333H11.6667C12.1971 11.3333 12.7058 11.1226 13.0809 10.7475C13.456 10.3724 13.6667 9.86372 13.6667 9.33329V2.66663C13.6667 2.13619 13.456 1.62749 13.0809 1.25241C12.7058 0.87734 12.1971 0.666626 11.6667 0.666626ZM11.22 1.99996L7.00001 5.16663L2.78001 1.99996H11.22ZM11.6667 9.99996H2.33334C2.15653 9.99996 1.98696 9.92972 1.86194 9.8047C1.73691 9.67967 1.66668 9.5101 1.66668 9.33329V2.83329L6.60001 6.53329C6.71541 6.61984 6.85576 6.66663 7.00001 6.66663C7.14426 6.66663 7.28461 6.61984 7.40001 6.53329L12.3333 2.83329V9.33329C12.3333 9.5101 12.2631 9.67967 12.1381 9.8047C12.0131 9.92972 11.8435 9.99996 11.6667 9.99996Z" fill="#5D677E"/>
</svg>
