<?xml version="1.0" encoding="utf-8"?>
<!-- Generator: Adobe Illustrator 22.1.0, SVG Export Plug-In . SVG Version: 6.00 Build 0)  -->
<svg version="1.1" id="Capa_1" xmlns="http://www.w3.org/2000/svg" xmlns:xlink="http://www.w3.org/1999/xlink" x="0px" y="0px"
	 viewBox="0 0 512 512" style="enable-background:new 0 0 512 512;" xml:space="preserve">
<style type="text/css">
	.st0{fill:#FFFFFF;}
</style>
<g>
	<g>
		<path class="st0" d="M90,287c-24.8,0-45,20.2-45,45s20.2,45,45,45s45-20.2,45-45S114.8,287,90,287z"/>
	</g>
</g>
<g>
	<g>
		<path class="st0" d="M120,377H90H60c-33.1,0-60,26.9-60,60v60c0,8.3,6.7,15,15,15h150c8.3,0,15-6.7,15-15v-60
			C180,403.9,153.1,377,120,377z"/>
	</g>
</g>
<g>
	<g>
		<path class="st0" d="M422,287c-24.8,0-45,20.2-45,45s20.2,45,45,45s45-20.2,45-45S446.8,287,422,287z"/>
	</g>
</g>
<g>
	<g>
		<path class="st0" d="M452,377h-30h-30c-33.1,0-60,26.9-60,60v60c0,8.3,6.7,15,15,15h150c8.3,0,15-6.7,15-15v-60
			C512,403.9,485.1,377,452,377z"/>
	</g>
</g>
<g>
	<g>
		<path class="st0" d="M256,0H136C94.6,0,61,33.6,61,75v90c0,36.2,25.8,66.5,60,73.5V285c0,13.4,16.2,20.1,25.6,10.6l55.6-55.6H256
			c41.4,0,75-33.6,75-75V75C331,33.6,297.4,0,256,0z M251.6,85.6l-60,60c-5.9,5.9-15.4,5.9-21.2,0l-30-30c-5.9-5.9-5.9-15.4,0-21.2
			s15.4-5.9,21.2,0l19.4,19.4l49.4-49.4c5.9-5.9,15.4-5.9,21.2,0S257.5,79.7,251.6,85.6z"/>
	</g>
</g>
<g>
	<g>
		<path class="st0" d="M376,30h-25.5C357,43.7,361,58.8,361,75v90c0,34.4-16.8,64.6-42.4,83.8l46.8,46.8c9.5,9.5,25.6,2.8,25.6-10.6
			v-46.5c34.2-7,60-37.3,60-73.5v-60C451,63.6,417.4,30,376,30z"/>
	</g>
</g>
</svg>
