<?xml version="1.0" encoding="utf-8"?>
<!-- Generator: Adobe Illustrator 22.1.0, SVG Export Plug-In . SVG Version: 6.00 Build 0)  -->
<svg version="1.1" id="Capa_1" xmlns="http://www.w3.org/2000/svg" xmlns:xlink="http://www.w3.org/1999/xlink" x="0px" y="0px"
	 viewBox="0 0 20.5 20.5" style="enable-background:new 0 0 20.5 20.5;" xml:space="preserve">
<style type="text/css">
	.st0{fill:#2C85C9;}
</style>
<g>
	<g>
		<path class="st0" d="M19.2,14.5c0-0.1,0-0.2,0-0.3l-2-6c-0.1-0.4-0.5-0.7-0.9-0.7h-4v2h3.3l1.7,5H3.3l1.7-5h3.3v-2h-4
			c-0.4,0-0.8,0.3-0.9,0.7l-2,6c0,0.1,0,0.2,0,0.3c0,0,0,5,0,5c0,0.6,0.4,1,1,1h16c0.6,0,1-0.4,1-1C19.3,19.5,19.3,14.5,19.2,14.5z"
			/>
		<path class="st0" d="M14.3,6.4c0.3,0,0.5-0.1,0.7-0.3c0.4-0.4,0.4-1,0-1.4L10.3,0L5.5,4.7c-0.4,0.4-0.4,1,0,1.4
			C5.7,6.3,6,6.4,6.3,6.4S6.8,6.3,7,6.1l2.3-2.3v6.7c0,0.6,0.4,1,1,1s1-0.4,1-1V3.8l2.3,2.3C13.7,6.3,14,6.4,14.3,6.4z"/>
	</g>
</g>
</svg>
