<?xml version="1.0" encoding="utf-8"?>
<!-- Generator: Adobe Illustrator 22.1.0, SVG Export Plug-In . SVG Version: 6.00 Build 0)  -->
<svg version="1.1" id="Capa_1" xmlns="http://www.w3.org/2000/svg" xmlns:xlink="http://www.w3.org/1999/xlink" x="0px" y="0px"
	 viewBox="0 0 512 512" style="enable-background:new 0 0 512 512;" xml:space="preserve">
<style type="text/css">
	.st0{fill:#2C85C9;}
</style>
<g>
	<g>
		<g>
			<circle class="st0" cx="256" cy="181.3" r="53.3"/>
			<path class="st0" d="M182.9,341.3h146.3c12.6,0,22.9-11.1,22.9-24.7v-6.8c0-17.8-8.8-34.1-23-42.5c-17-10-43.5-22-73-22
				s-55.9,12-73,22c-14.2,8.4-23,24.7-23,42.5v6.8C160,330.3,170.3,341.3,182.9,341.3z"/>
			<path class="st0" d="M245.3,85.3h21.3c5.9,0,10.7-4.8,10.7-10.7S272.6,64,266.7,64h-21.3c-5.9,0-10.7,4.8-10.7,10.7
				C234.7,80.6,239.4,85.3,245.3,85.3z"/>
			<path class="st0" d="M384,0H128c-23.5,0-42.7,19.1-42.7,42.7v426.7c0,23.5,19.1,42.7,42.7,42.7h256c23.5,0,42.7-19.1,42.7-42.7
				V42.7C426.7,19.1,407.5,0,384,0z M288,469.3h-64c-5.9,0-10.7-4.8-10.7-10.7S218.1,448,224,448h64c5.9,0,10.7,4.8,10.7,10.7
				S293.9,469.3,288,469.3z M384,405.3H128V42.7h256V405.3z"/>
			<circle class="st0" cx="352" cy="74.7" r="10.7"/>
		</g>
	</g>
</g>
</svg>
