<?xml version="1.0" encoding="utf-8"?>
<!-- Generator: Adobe Illustrator 22.1.0, SVG Export Plug-In . SVG Version: 6.00 Build 0)  -->
<svg version="1.1" id="Layer_1" xmlns="http://www.w3.org/2000/svg" xmlns:xlink="http://www.w3.org/1999/xlink" x="0px" y="0px"
	 viewBox="0 0 512 512" style="enable-background:new 0 0 512 512;" xml:space="preserve">
<style type="text/css">
	.st0{fill:#2C85C9;}
</style>
<path class="st0" d="M341.9,311.7c66.3-83,52.8-204-30.2-270.3s-204-52.8-270.3,30.2s-52.8,204,30.2,270.3
	c70.2,56.1,169.9,56.1,240.1,0l163.8,163.8l30.2-30.2L341.9,311.7z M192,64c35.3,0,64,28.7,64,64s-28.7,64-64,64s-64-28.7-64-64
	S156.7,64,192,64z M298.7,325.1c-62.3,50.1-151,50.1-213.3,0V256c0-23.6,19.1-42.7,42.7-42.7h128c23.6,0,42.7,19.1,42.7,42.7V325.1z
	"/>
</svg>
